<svg width="16" height="17" viewBox="0 0 16 17" fill="none" xmlns="http://www.w3.org/2000/svg">
<g clip-path="url(#clip0_322_4847)">
<path d="M7.66675 3.50009C7.66675 3.13209 7.96541 2.83342 8.33341 2.83342L13.0001 2.83342C13.0437 2.83342 13.0874 2.83809 13.1307 2.84642C13.1507 2.85042 13.1691 2.85775 13.1884 2.86342C13.2107 2.87009 13.2334 2.87509 13.2551 2.88409C13.2781 2.89342 13.2987 2.90642 13.3204 2.91842C13.3367 2.92742 13.3541 2.93475 13.3697 2.94542C13.4431 2.99442 13.5057 3.05709 13.5547 3.13042C13.5654 3.14642 13.5724 3.16342 13.5817 3.17975C13.5937 3.20142 13.6067 3.22209 13.6161 3.24509C13.6251 3.26675 13.6301 3.28942 13.6367 3.31175C13.6424 3.33109 13.6497 3.34942 13.6537 3.36942C13.6621 3.41275 13.6667 3.45642 13.6667 3.50009L13.6667 8.16675C13.6667 8.53475 13.3681 8.83342 13.0001 8.83342C12.6321 8.83342 12.3334 8.53475 12.3334 8.16675L12.3334 5.10942L3.47141 13.9714C3.21108 14.2318 2.78908 14.2318 2.52875 13.9714C2.26841 13.7111 2.26841 13.2891 2.52875 13.0288L11.3907 4.16675L8.33341 4.16675C7.96541 4.16675 7.66675 3.86809 7.66675 3.50009Z" fill="#67FFD1"/>
</g>
<defs>
<clipPath id="clip0_322_4847">
<rect width="16" height="16" fill="white" transform="translate(0 16.5) rotate(-90)"/>
</clipPath>
</defs>
</svg>
