<svg width="560" height="253" viewBox="0 0 560 253" fill="none" xmlns="http://www.w3.org/2000/svg">
<rect width="560" height="253" rx="8" fill="black" fill-opacity="0.3"/>
<path d="M48 12H608" stroke="white" stroke-opacity="0.1"/>
<path d="M28.8841 40.0994C28.4366 40.0994 28.0365 40.0189 27.6838 39.858C27.331 39.6946 27.0517 39.4685 26.8457 39.1797C26.6397 38.8909 26.5308 38.5582 26.519 38.1818H27.1902C27.202 38.447 27.2837 38.679 27.4352 38.8778C27.5867 39.0743 27.7879 39.2282 28.0389 39.3395C28.2898 39.4484 28.5692 39.5028 28.877 39.5028C29.2131 39.5028 29.5091 39.4401 29.7647 39.3146C30.0228 39.1892 30.224 39.0175 30.3684 38.7997C30.5152 38.5795 30.5886 38.331 30.5886 38.054C30.5886 37.7604 30.514 37.5012 30.3649 37.2763C30.2157 37.0514 30.0015 36.8762 29.7221 36.7507C29.4451 36.6252 29.1137 36.5625 28.7278 36.5625H28.3017V35.9659H28.7278C29.0427 35.9659 29.3208 35.9091 29.5623 35.7955C29.8062 35.6795 29.9979 35.5173 30.1376 35.3089C30.2773 35.1006 30.3471 34.8556 30.3471 34.5739C30.3471 34.3063 30.2868 34.0708 30.166 33.8672C30.0453 33.6636 29.8748 33.5038 29.6547 33.3878C29.4368 33.2718 29.1824 33.2138 28.8912 33.2138C28.6094 33.2138 28.3514 33.2682 28.117 33.3771C27.8826 33.486 27.6932 33.6399 27.5488 33.8388C27.4068 34.0376 27.331 34.2732 27.3216 34.5455H26.6788C26.6883 34.1667 26.7924 33.834 26.9913 33.5476C27.1925 33.2588 27.4589 33.0339 27.7903 32.8729C28.1241 32.7095 28.4934 32.6278 28.8983 32.6278C29.3268 32.6278 29.6973 32.7154 30.0098 32.8906C30.3223 33.0658 30.5637 33.299 30.7342 33.5902C30.907 33.879 30.9934 34.1974 30.9934 34.5455C30.9934 34.9598 30.881 35.3149 30.6561 35.6108C30.4312 35.9044 30.1281 36.108 29.747 36.2216V36.2678C30.211 36.3601 30.5756 36.5661 30.8407 36.8857C31.1083 37.2029 31.242 37.5923 31.242 38.054C31.242 38.4422 31.1402 38.7914 30.9366 39.1016C30.733 39.4093 30.4537 39.6532 30.0985 39.8331C29.7458 40.0107 29.341 40.0994 28.8841 40.0994ZM36.4906 38.6506V38.3203C36.4906 38.0481 36.545 37.803 36.6539 37.5852C36.7628 37.3651 36.9179 37.1911 37.1191 37.0632C37.3204 36.9354 37.5595 36.8714 37.8365 36.8714C38.1158 36.8714 38.3549 36.9354 38.5538 37.0632C38.7527 37.1911 38.9054 37.3651 39.0119 37.5852C39.1184 37.803 39.1717 38.0481 39.1717 38.3203V38.6506C39.1717 38.9228 39.1172 39.1679 39.0083 39.3857C38.9018 39.6035 38.7491 39.7775 38.5502 39.9077C38.3514 40.0355 38.1135 40.0994 37.8365 40.0994C37.5547 40.0994 37.3133 40.0355 37.112 39.9077C36.9132 39.7775 36.7593 39.6035 36.6504 39.3857C36.5439 39.1679 36.4906 38.9228 36.4906 38.6506ZM37.0481 38.3203V38.6506C37.0481 38.9181 37.1132 39.1465 37.2434 39.3359C37.376 39.523 37.5737 39.6165 37.8365 39.6165C38.0922 39.6165 38.2851 39.523 38.4153 39.3359C38.5455 39.1465 38.6106 38.9181 38.6106 38.6506V38.3203C38.6106 38.0528 38.5467 37.8255 38.4189 37.6385C38.291 37.4491 38.0969 37.3544 37.8365 37.3544C37.5784 37.3544 37.3819 37.4491 37.247 37.6385C37.1144 37.8255 37.0481 38.0528 37.0481 38.3203ZM32.8258 34.407V34.0767C32.8258 33.8045 32.8803 33.5594 32.9892 33.3416C33.0981 33.1238 33.2531 32.951 33.4544 32.8232C33.6556 32.6929 33.8947 32.6278 34.1717 32.6278C34.4511 32.6278 34.6902 32.6929 34.889 32.8232C35.0879 32.951 35.2406 33.1238 35.3471 33.3416C35.4537 33.5594 35.5069 33.8045 35.5069 34.0767V34.407C35.5069 34.6792 35.4525 34.9254 35.3436 35.1456C35.237 35.3634 35.0843 35.5362 34.8855 35.6641C34.6866 35.7919 34.4487 35.8558 34.1717 35.8558C33.89 35.8558 33.6485 35.7919 33.4473 35.6641C33.2484 35.5362 33.0945 35.3634 32.9856 35.1456C32.8791 34.9254 32.8258 34.6792 32.8258 34.407ZM33.3833 34.0767V34.407C33.3833 34.6745 33.4484 34.9029 33.5787 35.0923C33.7112 35.2794 33.9089 35.3729 34.1717 35.3729C34.4274 35.3729 34.6203 35.2794 34.7505 35.0923C34.8807 34.9029 34.9458 34.6745 34.9458 34.407V34.0767C34.9458 33.8092 34.8819 33.5819 34.7541 33.3949C34.6262 33.2055 34.4321 33.1108 34.1717 33.1108C33.9136 33.1108 33.7172 33.2055 33.5822 33.3949C33.4496 33.5819 33.3833 33.8092 33.3833 34.0767ZM33.1525 40L38.149 32.7273H38.7775L33.7811 40H33.1525Z" fill="white" fill-opacity="0.6"/>
<path d="M67.3675 227.099C66.92 227.099 66.5199 227.019 66.1672 226.858C65.8144 226.695 65.5351 226.469 65.3291 226.18C65.1231 225.891 65.0142 225.558 65.0024 225.182H65.6736C65.6854 225.447 65.7671 225.679 65.9186 225.878C66.0701 226.074 66.2713 226.228 66.5223 226.339C66.7732 226.448 67.0526 226.503 67.3604 226.503C67.6965 226.503 67.9925 226.44 68.2481 226.315C68.5062 226.189 68.7074 226.018 68.8518 225.8C68.9986 225.58 69.072 225.331 69.072 225.054C69.072 224.76 68.9974 224.501 68.8483 224.276C68.6991 224.051 68.4849 223.876 68.2055 223.751C67.9285 223.625 67.5971 223.562 67.2112 223.562H66.7851V222.966H67.2112C67.5261 222.966 67.8042 222.909 68.0457 222.795C68.2896 222.679 68.4813 222.517 68.621 222.309C68.7607 222.101 68.8305 221.856 68.8305 221.574C68.8305 221.306 68.7702 221.071 68.6494 220.867C68.5287 220.664 68.3582 220.504 68.1381 220.388C67.9202 220.272 67.6657 220.214 67.3746 220.214C67.0928 220.214 66.8348 220.268 66.6004 220.377C66.366 220.486 66.1766 220.64 66.0322 220.839C65.8902 221.038 65.8144 221.273 65.805 221.545H65.1622C65.1717 221.167 65.2758 220.834 65.4747 220.548C65.6759 220.259 65.9423 220.034 66.2737 219.873C66.6075 219.71 66.9768 219.628 67.3817 219.628C67.8102 219.628 68.1807 219.715 68.4932 219.891C68.8057 220.066 69.0471 220.299 69.2176 220.59C69.3904 220.879 69.4768 221.197 69.4768 221.545C69.4768 221.96 69.3644 222.315 69.1395 222.611C68.9146 222.904 68.6115 223.108 68.2304 223.222V223.268C68.6944 223.36 69.059 223.566 69.3241 223.886C69.5916 224.203 69.7254 224.592 69.7254 225.054C69.7254 225.442 69.6236 225.791 69.42 226.102C69.2164 226.409 68.9371 226.653 68.5819 226.833C68.2292 227.011 67.8244 227.099 67.3675 227.099ZM71.8241 225.91C71.6845 225.91 71.5637 225.86 71.4619 225.761C71.3625 225.659 71.3128 225.538 71.3128 225.398C71.3128 225.256 71.3625 225.136 71.4619 225.036C71.5637 224.937 71.6845 224.887 71.8241 224.887C71.9662 224.887 72.0869 224.937 72.1863 225.036C72.2858 225.136 72.3355 225.256 72.3355 225.398C72.3355 225.491 72.3118 225.576 72.2645 225.654C72.2195 225.732 72.1579 225.795 72.0798 225.842C72.0041 225.887 71.9188 225.91 71.8241 225.91ZM71.8241 222.22C71.6845 222.22 71.5637 222.17 71.4619 222.071C71.3625 221.969 71.3128 221.848 71.3128 221.709C71.3128 221.569 71.3625 221.45 71.4619 221.35C71.5637 221.248 71.6845 221.197 71.8241 221.197C71.9662 221.197 72.0869 221.248 72.1863 221.35C72.2858 221.45 72.3355 221.569 72.3355 221.709C72.3355 221.801 72.3118 221.886 72.2645 221.964C72.2195 222.043 72.1579 222.105 72.0798 222.153C72.0041 222.198 71.9188 222.22 71.8241 222.22ZM76.2391 227.099C75.7277 227.099 75.2909 226.953 74.9287 226.659C74.5689 226.363 74.2919 225.936 74.0977 225.377C73.906 224.818 73.8101 224.147 73.8101 223.364C73.8101 222.582 73.906 221.914 74.0977 221.357C74.2919 220.799 74.57 220.371 74.9323 220.075C75.2968 219.777 75.7325 219.628 76.2391 219.628C76.7457 219.628 77.1801 219.777 77.5423 220.075C77.9069 220.371 78.1851 220.799 78.3769 221.357C78.571 221.914 78.6681 222.582 78.6681 223.364C78.6681 224.147 78.571 224.818 78.3769 225.377C78.1851 225.936 77.9081 226.363 77.5459 226.659C77.1861 226.953 76.7504 227.099 76.2391 227.099ZM76.2391 226.503C76.8002 226.503 77.2381 226.229 77.553 225.683C77.8679 225.133 78.0253 224.36 78.0253 223.364C78.0253 222.701 77.9531 222.135 77.8087 221.666C77.6666 221.195 77.4619 220.835 77.1943 220.587C76.9292 220.338 76.6108 220.214 76.2391 220.214C75.6827 220.214 75.2459 220.491 74.9287 221.045C74.6115 221.596 74.4529 222.369 74.4529 223.364C74.4529 224.027 74.5239 224.592 74.6659 225.061C74.8103 225.53 75.0151 225.887 75.2803 226.134C75.5478 226.38 75.8674 226.503 76.2391 226.503ZM82.3719 227.099C81.8605 227.099 81.4237 226.953 81.0615 226.659C80.7017 226.363 80.4247 225.936 80.2306 225.377C80.0388 224.818 79.9429 224.147 79.9429 223.364C79.9429 222.582 80.0388 221.914 80.2306 221.357C80.4247 220.799 80.7029 220.371 81.0651 220.075C81.4297 219.777 81.8653 219.628 82.3719 219.628C82.8785 219.628 83.3129 219.777 83.6752 220.075C84.0397 220.371 84.3179 220.799 84.5097 221.357C84.7038 221.914 84.8009 222.582 84.8009 223.364C84.8009 224.147 84.7038 224.818 84.5097 225.377C84.3179 225.936 84.0409 226.363 83.6787 226.659C83.3189 226.953 82.8833 227.099 82.3719 227.099ZM82.3719 226.503C82.933 226.503 83.3709 226.229 83.6858 225.683C84.0007 225.133 84.1581 224.36 84.1581 223.364C84.1581 222.701 84.0859 222.135 83.9415 221.666C83.7994 221.195 83.5947 220.835 83.3271 220.587C83.062 220.338 82.7436 220.214 82.3719 220.214C81.8155 220.214 81.3788 220.491 81.0615 221.045C80.7443 221.596 80.5857 222.369 80.5857 223.364C80.5857 224.027 80.6567 224.592 80.7987 225.061C80.9432 225.53 81.1479 225.887 81.4131 226.134C81.6806 226.38 82.0002 226.503 82.3719 226.503ZM92.0274 223.065V223.662H89.0019V223.065H92.0274ZM96.2284 225.438V224.898L99.4706 219.727H99.8683V220.633H99.5736L96.9706 224.795V224.841H101.221V225.438H96.2284ZM99.6233 227V225.267V225.018V219.727H100.255V227H99.6233ZM103.191 225.91C103.052 225.91 102.931 225.86 102.829 225.761C102.73 225.659 102.68 225.538 102.68 225.398C102.68 225.256 102.73 225.136 102.829 225.036C102.931 224.937 103.052 224.887 103.191 224.887C103.333 224.887 103.454 224.937 103.554 225.036C103.653 225.136 103.703 225.256 103.703 225.398C103.703 225.491 103.679 225.576 103.632 225.654C103.587 225.732 103.525 225.795 103.447 225.842C103.371 225.887 103.286 225.91 103.191 225.91ZM103.191 222.22C103.052 222.22 102.931 222.17 102.829 222.071C102.73 221.969 102.68 221.848 102.68 221.709C102.68 221.569 102.73 221.45 102.829 221.35C102.931 221.248 103.052 221.197 103.191 221.197C103.333 221.197 103.454 221.248 103.554 221.35C103.653 221.45 103.703 221.569 103.703 221.709C103.703 221.801 103.679 221.886 103.632 221.964C103.587 222.043 103.525 222.105 103.447 222.153C103.371 222.198 103.286 222.22 103.191 222.22ZM107.606 227.099C107.095 227.099 106.658 226.953 106.296 226.659C105.936 226.363 105.659 225.936 105.465 225.377C105.273 224.818 105.177 224.147 105.177 223.364C105.177 222.582 105.273 221.914 105.465 221.357C105.659 220.799 105.937 220.371 106.299 220.075C106.664 219.777 107.1 219.628 107.606 219.628C108.113 219.628 108.547 219.777 108.91 220.075C109.274 220.371 109.552 220.799 109.744 221.357C109.938 221.914 110.035 222.582 110.035 223.364C110.035 224.147 109.938 224.818 109.744 225.377C109.552 225.936 109.275 226.363 108.913 226.659C108.553 226.953 108.118 227.099 107.606 227.099ZM107.606 226.503C108.167 226.503 108.605 226.229 108.92 225.683C109.235 225.133 109.392 224.36 109.392 223.364C109.392 222.701 109.32 222.135 109.176 221.666C109.034 221.195 108.829 220.835 108.562 220.587C108.296 220.338 107.978 220.214 107.606 220.214C107.05 220.214 106.613 220.491 106.296 221.045C105.979 221.596 105.82 222.369 105.82 223.364C105.82 224.027 105.891 224.592 106.033 225.061C106.178 225.53 106.382 225.887 106.647 226.134C106.915 226.38 107.235 226.503 107.606 226.503ZM113.739 227.099C113.228 227.099 112.791 226.953 112.429 226.659C112.069 226.363 111.792 225.936 111.598 225.377C111.406 224.818 111.31 224.147 111.31 223.364C111.31 222.582 111.406 221.914 111.598 221.357C111.792 220.799 112.07 220.371 112.432 220.075C112.797 219.777 113.232 219.628 113.739 219.628C114.246 219.628 114.68 219.777 115.042 220.075C115.407 220.371 115.685 220.799 115.877 221.357C116.071 221.914 116.168 222.582 116.168 223.364C116.168 224.147 116.071 224.818 115.877 225.377C115.685 225.936 115.408 226.363 115.046 226.659C114.686 226.953 114.25 227.099 113.739 227.099ZM113.739 226.503C114.3 226.503 114.738 226.229 115.053 225.683C115.368 225.133 115.525 224.36 115.525 223.364C115.525 222.701 115.453 222.135 115.309 221.666C115.167 221.195 114.962 220.835 114.694 220.587C114.429 220.338 114.111 220.214 113.739 220.214C113.183 220.214 112.746 220.491 112.429 221.045C112.111 221.596 111.953 222.369 111.953 223.364C111.953 224.027 112.024 224.592 112.166 225.061C112.31 225.53 112.515 225.887 112.78 226.134C113.048 226.38 113.367 226.503 113.739 226.503Z" fill="white" fill-opacity="0.6"/>
<path d="M221.382 227.099C220.977 227.099 220.615 227.018 220.295 226.854C219.978 226.689 219.725 226.461 219.536 226.173C219.348 225.884 219.249 225.554 219.237 225.182H219.88C219.901 225.568 220.053 225.885 220.335 226.134C220.616 226.38 220.965 226.503 221.382 226.503C221.706 226.503 221.995 226.426 222.249 226.272C222.502 226.116 222.7 225.903 222.842 225.633C222.986 225.361 223.058 225.054 223.058 224.713C223.056 224.358 222.979 224.045 222.827 223.776C222.676 223.503 222.47 223.29 222.21 223.136C221.951 222.982 221.661 222.906 221.339 222.906C221.096 222.903 220.857 222.943 220.622 223.026C220.388 223.109 220.192 223.216 220.036 223.346L219.372 223.261L219.809 219.727H223.403V220.324H220.366L220.075 222.756H220.111C220.272 222.621 220.467 222.511 220.697 222.426C220.929 222.341 221.174 222.298 221.432 222.298C221.86 222.298 222.245 222.401 222.586 222.607C222.929 222.813 223.2 223.097 223.399 223.46C223.6 223.819 223.701 224.234 223.701 224.702C223.701 225.162 223.6 225.572 223.399 225.935C223.2 226.295 222.926 226.579 222.575 226.787C222.227 226.995 221.83 227.099 221.382 227.099ZM225.741 225.91C225.601 225.91 225.481 225.86 225.379 225.761C225.279 225.659 225.23 225.538 225.23 225.398C225.23 225.256 225.279 225.136 225.379 225.036C225.481 224.937 225.601 224.887 225.741 224.887C225.883 224.887 226.004 224.937 226.103 225.036C226.203 225.136 226.252 225.256 226.252 225.398C226.252 225.491 226.229 225.576 226.181 225.654C226.136 225.732 226.075 225.795 225.997 225.842C225.921 225.887 225.836 225.91 225.741 225.91ZM225.741 222.22C225.601 222.22 225.481 222.17 225.379 222.071C225.279 221.969 225.23 221.848 225.23 221.709C225.23 221.569 225.279 221.45 225.379 221.35C225.481 221.248 225.601 221.197 225.741 221.197C225.883 221.197 226.004 221.248 226.103 221.35C226.203 221.45 226.252 221.569 226.252 221.709C226.252 221.801 226.229 221.886 226.181 221.964C226.136 222.043 226.075 222.105 225.997 222.153C225.921 222.198 225.836 222.22 225.741 222.22ZM230.156 227.099C229.645 227.099 229.208 226.953 228.846 226.659C228.486 226.363 228.209 225.936 228.015 225.377C227.823 224.818 227.727 224.147 227.727 223.364C227.727 222.582 227.823 221.914 228.015 221.357C228.209 220.799 228.487 220.371 228.849 220.075C229.214 219.777 229.649 219.628 230.156 219.628C230.663 219.628 231.097 219.777 231.459 220.075C231.824 220.371 232.102 220.799 232.294 221.357C232.488 221.914 232.585 222.582 232.585 223.364C232.585 224.147 232.488 224.818 232.294 225.377C232.102 225.936 231.825 226.363 231.463 226.659C231.103 226.953 230.667 227.099 230.156 227.099ZM230.156 226.503C230.717 226.503 231.155 226.229 231.47 225.683C231.785 225.133 231.942 224.36 231.942 223.364C231.942 222.701 231.87 222.135 231.726 221.666C231.584 221.195 231.379 220.835 231.111 220.587C230.846 220.338 230.528 220.214 230.156 220.214C229.6 220.214 229.163 220.491 228.846 221.045C228.528 221.596 228.37 222.369 228.37 223.364C228.37 224.027 228.441 224.592 228.583 225.061C228.727 225.53 228.932 225.887 229.197 226.134C229.465 226.38 229.784 226.503 230.156 226.503ZM236.289 227.099C235.778 227.099 235.341 226.953 234.979 226.659C234.619 226.363 234.342 225.936 234.148 225.377C233.956 224.818 233.86 224.147 233.86 223.364C233.86 222.582 233.956 221.914 234.148 221.357C234.342 220.799 234.62 220.371 234.982 220.075C235.347 219.777 235.782 219.628 236.289 219.628C236.796 219.628 237.23 219.777 237.592 220.075C237.957 220.371 238.235 220.799 238.427 221.357C238.621 221.914 238.718 222.582 238.718 223.364C238.718 224.147 238.621 224.818 238.427 225.377C238.235 225.936 237.958 226.363 237.596 226.659C237.236 226.953 236.8 227.099 236.289 227.099ZM236.289 226.503C236.85 226.503 237.288 226.229 237.603 225.683C237.918 225.133 238.075 224.36 238.075 223.364C238.075 222.701 238.003 222.135 237.858 221.666C237.716 221.195 237.512 220.835 237.244 220.587C236.979 220.338 236.661 220.214 236.289 220.214C235.733 220.214 235.296 220.491 234.979 221.045C234.661 221.596 234.503 222.369 234.503 223.364C234.503 224.027 234.574 224.592 234.716 225.061C234.86 225.53 235.065 225.887 235.33 226.134C235.598 226.38 235.917 226.503 236.289 226.503ZM245.944 223.065V223.662H242.919V223.065H245.944ZM252.61 227.099C252.309 227.097 252.016 227.037 251.729 226.918C251.443 226.798 251.185 226.605 250.955 226.339C250.725 226.072 250.543 225.719 250.408 225.281C250.273 224.843 250.206 224.305 250.206 223.665C250.206 223.074 250.258 222.531 250.362 222.039C250.466 221.547 250.622 221.121 250.831 220.761C251.039 220.401 251.3 220.123 251.612 219.926C251.925 219.727 252.29 219.628 252.709 219.628C253.102 219.628 253.449 219.71 253.75 219.873C254.05 220.034 254.294 220.259 254.481 220.548C254.668 220.836 254.786 221.169 254.833 221.545H254.18C254.113 221.162 253.956 220.846 253.707 220.597C253.459 220.349 253.126 220.224 252.709 220.224C252.113 220.224 251.651 220.501 251.324 221.055C250.998 221.607 250.833 222.391 250.831 223.406H250.877C250.993 223.191 251.142 223.005 251.324 222.849C251.509 222.69 251.719 222.567 251.953 222.479C252.187 222.389 252.434 222.344 252.692 222.344C253.096 222.344 253.467 222.447 253.803 222.653C254.139 222.857 254.408 223.138 254.609 223.495C254.81 223.85 254.911 224.256 254.911 224.713C254.911 225.146 254.815 225.545 254.623 225.91C254.434 226.274 254.166 226.564 253.821 226.78C253.478 226.995 253.074 227.102 252.61 227.099ZM252.61 226.503C252.927 226.503 253.21 226.422 253.459 226.261C253.71 226.1 253.907 225.885 254.052 225.615C254.196 225.343 254.268 225.042 254.268 224.713C254.268 224.384 254.196 224.086 254.052 223.818C253.907 223.551 253.71 223.338 253.459 223.179C253.21 223.02 252.927 222.941 252.61 222.941C252.368 222.941 252.144 222.991 251.935 223.09C251.727 223.187 251.546 223.321 251.392 223.491C251.24 223.66 251.124 223.853 251.044 224.07C250.966 224.288 250.936 224.517 250.955 224.756C250.981 225.089 251.068 225.389 251.214 225.654C251.363 225.917 251.558 226.124 251.797 226.276C252.038 226.427 252.309 226.503 252.61 226.503ZM256.942 225.91C256.803 225.91 256.682 225.86 256.58 225.761C256.481 225.659 256.431 225.538 256.431 225.398C256.431 225.256 256.481 225.136 256.58 225.036C256.682 224.937 256.803 224.887 256.942 224.887C257.084 224.887 257.205 224.937 257.305 225.036C257.404 225.136 257.454 225.256 257.454 225.398C257.454 225.491 257.43 225.576 257.383 225.654C257.338 225.732 257.276 225.795 257.198 225.842C257.122 225.887 257.037 225.91 256.942 225.91ZM256.942 222.22C256.803 222.22 256.682 222.17 256.58 222.071C256.481 221.969 256.431 221.848 256.431 221.709C256.431 221.569 256.481 221.45 256.58 221.35C256.682 221.248 256.803 221.197 256.942 221.197C257.084 221.197 257.205 221.248 257.305 221.35C257.404 221.45 257.454 221.569 257.454 221.709C257.454 221.801 257.43 221.886 257.383 221.964C257.338 222.043 257.276 222.105 257.198 222.153C257.122 222.198 257.037 222.22 256.942 222.22ZM261.357 227.099C260.846 227.099 260.409 226.953 260.047 226.659C259.687 226.363 259.41 225.936 259.216 225.377C259.024 224.818 258.928 224.147 258.928 223.364C258.928 222.582 259.024 221.914 259.216 221.357C259.41 220.799 259.688 220.371 260.05 220.075C260.415 219.777 260.851 219.628 261.357 219.628C261.864 219.628 262.298 219.777 262.661 220.075C263.025 220.371 263.303 220.799 263.495 221.357C263.689 221.914 263.786 222.582 263.786 223.364C263.786 224.147 263.689 224.818 263.495 225.377C263.303 225.936 263.026 226.363 262.664 226.659C262.304 226.953 261.869 227.099 261.357 227.099ZM261.357 226.503C261.918 226.503 262.356 226.229 262.671 225.683C262.986 225.133 263.143 224.36 263.143 223.364C263.143 222.701 263.071 222.135 262.927 221.666C262.785 221.195 262.58 220.835 262.312 220.587C262.047 220.338 261.729 220.214 261.357 220.214C260.801 220.214 260.364 220.491 260.047 221.045C259.73 221.596 259.571 222.369 259.571 223.364C259.571 224.027 259.642 224.592 259.784 225.061C259.929 225.53 260.133 225.887 260.398 226.134C260.666 226.38 260.986 226.503 261.357 226.503ZM267.49 227.099C266.979 227.099 266.542 226.953 266.18 226.659C265.82 226.363 265.543 225.936 265.349 225.377C265.157 224.818 265.061 224.147 265.061 223.364C265.061 222.582 265.157 221.914 265.349 221.357C265.543 220.799 265.821 220.371 266.183 220.075C266.548 219.777 266.983 219.628 267.49 219.628C267.997 219.628 268.431 219.777 268.793 220.075C269.158 220.371 269.436 220.799 269.628 221.357C269.822 221.914 269.919 222.582 269.919 223.364C269.919 224.147 269.822 224.818 269.628 225.377C269.436 225.936 269.159 226.363 268.797 226.659C268.437 226.953 268.001 227.099 267.49 227.099ZM267.49 226.503C268.051 226.503 268.489 226.229 268.804 225.683C269.119 225.133 269.276 224.36 269.276 223.364C269.276 222.701 269.204 222.135 269.06 221.666C268.918 221.195 268.713 220.835 268.445 220.587C268.18 220.338 267.862 220.214 267.49 220.214C266.934 220.214 266.497 220.491 266.18 221.045C265.862 221.596 265.704 222.369 265.704 223.364C265.704 224.027 265.775 224.592 265.917 225.061C266.061 225.53 266.266 225.887 266.531 226.134C266.799 226.38 267.118 226.503 267.49 226.503Z" fill="white" fill-opacity="0.6"/>
<path d="M298.377 227.099C298.077 227.097 297.783 227.037 297.497 226.918C297.21 226.798 296.952 226.605 296.723 226.339C296.493 226.072 296.311 225.719 296.176 225.281C296.041 224.843 295.973 224.305 295.973 223.665C295.973 223.074 296.025 222.531 296.13 222.039C296.234 221.547 296.39 221.121 296.598 220.761C296.807 220.401 297.067 220.123 297.38 219.926C297.692 219.727 298.058 219.628 298.477 219.628C298.87 219.628 299.217 219.71 299.517 219.873C299.818 220.034 300.062 220.259 300.249 220.548C300.436 220.836 300.553 221.169 300.6 221.545H299.947C299.881 221.162 299.723 220.846 299.475 220.597C299.226 220.349 298.894 220.224 298.477 220.224C297.88 220.224 297.419 220.501 297.092 221.055C296.765 221.607 296.601 222.391 296.598 223.406H296.645C296.761 223.191 296.91 223.005 297.092 222.849C297.277 222.69 297.486 222.567 297.721 222.479C297.955 222.389 298.201 222.344 298.459 222.344C298.864 222.344 299.234 222.447 299.571 222.653C299.907 222.857 300.176 223.138 300.377 223.495C300.578 223.85 300.679 224.256 300.679 224.713C300.679 225.146 300.583 225.545 300.391 225.91C300.202 226.274 299.934 226.564 299.588 226.78C299.245 226.995 298.842 227.102 298.377 227.099ZM298.377 226.503C298.695 226.503 298.978 226.422 299.226 226.261C299.477 226.1 299.675 225.885 299.819 225.615C299.964 225.343 300.036 225.042 300.036 224.713C300.036 224.384 299.964 224.086 299.819 223.818C299.675 223.551 299.477 223.338 299.226 223.179C298.978 223.02 298.695 222.941 298.377 222.941C298.136 222.941 297.911 222.991 297.703 223.09C297.494 223.187 297.313 223.321 297.159 223.491C297.008 223.66 296.892 223.853 296.811 224.07C296.733 224.288 296.704 224.517 296.723 224.756C296.749 225.089 296.835 225.389 296.982 225.654C297.131 225.917 297.325 226.124 297.564 226.276C297.806 226.427 298.077 226.503 298.377 226.503ZM302.71 225.91C302.57 225.91 302.449 225.86 302.348 225.761C302.248 225.659 302.199 225.538 302.199 225.398C302.199 225.256 302.248 225.136 302.348 225.036C302.449 224.937 302.57 224.887 302.71 224.887C302.852 224.887 302.973 224.937 303.072 225.036C303.172 225.136 303.221 225.256 303.221 225.398C303.221 225.491 303.198 225.576 303.15 225.654C303.105 225.732 303.044 225.795 302.966 225.842C302.89 225.887 302.805 225.91 302.71 225.91ZM302.71 222.22C302.57 222.22 302.449 222.17 302.348 222.071C302.248 221.969 302.199 221.848 302.199 221.709C302.199 221.569 302.248 221.45 302.348 221.35C302.449 221.248 302.57 221.197 302.71 221.197C302.852 221.197 302.973 221.248 303.072 221.35C303.172 221.45 303.221 221.569 303.221 221.709C303.221 221.801 303.198 221.886 303.15 221.964C303.105 222.043 303.044 222.105 302.966 222.153C302.89 222.198 302.805 222.22 302.71 222.22ZM307.125 227.099C306.613 227.099 306.177 226.953 305.814 226.659C305.455 226.363 305.178 225.936 304.983 225.377C304.792 224.818 304.696 224.147 304.696 223.364C304.696 222.582 304.792 221.914 304.983 221.357C305.178 220.799 305.456 220.371 305.818 220.075C306.183 219.777 306.618 219.628 307.125 219.628C307.631 219.628 308.066 219.777 308.428 220.075C308.793 220.371 309.071 220.799 309.263 221.357C309.457 221.914 309.554 222.582 309.554 223.364C309.554 224.147 309.457 224.818 309.263 225.377C309.071 225.936 308.794 226.363 308.432 226.659C308.072 226.953 307.636 227.099 307.125 227.099ZM307.125 226.503C307.686 226.503 308.124 226.229 308.439 225.683C308.754 225.133 308.911 224.36 308.911 223.364C308.911 222.701 308.839 222.135 308.694 221.666C308.552 221.195 308.348 220.835 308.08 220.587C307.815 220.338 307.497 220.214 307.125 220.214C306.568 220.214 306.132 220.491 305.814 221.045C305.497 221.596 305.339 222.369 305.339 223.364C305.339 224.027 305.41 224.592 305.552 225.061C305.696 225.53 305.901 225.887 306.166 226.134C306.434 226.38 306.753 226.503 307.125 226.503ZM313.258 227.099C312.746 227.099 312.309 226.953 311.947 226.659C311.587 226.363 311.31 225.936 311.116 225.377C310.925 224.818 310.829 224.147 310.829 223.364C310.829 222.582 310.925 221.914 311.116 221.357C311.31 220.799 311.589 220.371 311.951 220.075C312.315 219.777 312.751 219.628 313.258 219.628C313.764 219.628 314.199 219.777 314.561 220.075C314.925 220.371 315.204 220.799 315.395 221.357C315.59 221.914 315.687 222.582 315.687 223.364C315.687 224.147 315.59 224.818 315.395 225.377C315.204 225.936 314.927 226.363 314.564 226.659C314.205 226.953 313.769 227.099 313.258 227.099ZM313.258 226.503C313.819 226.503 314.257 226.229 314.572 225.683C314.886 225.133 315.044 224.36 315.044 223.364C315.044 222.701 314.972 222.135 314.827 221.666C314.685 221.195 314.48 220.835 314.213 220.587C313.948 220.338 313.629 220.214 313.258 220.214C312.701 220.214 312.265 220.491 311.947 221.045C311.63 221.596 311.471 222.369 311.471 223.364C311.471 224.027 311.542 224.592 311.684 225.061C311.829 225.53 312.034 225.887 312.299 226.134C312.566 226.38 312.886 226.503 313.258 226.503ZM322.913 223.065V223.662H319.888V223.065H322.913ZM327.498 227L330.811 220.37V220.324H326.993V219.727H331.507V220.352L328.197 227H327.498ZM333.11 225.91C332.971 225.91 332.85 225.86 332.748 225.761C332.649 225.659 332.599 225.538 332.599 225.398C332.599 225.256 332.649 225.136 332.748 225.036C332.85 224.937 332.971 224.887 333.11 224.887C333.252 224.887 333.373 224.937 333.472 225.036C333.572 225.136 333.622 225.256 333.622 225.398C333.622 225.491 333.598 225.576 333.551 225.654C333.506 225.732 333.444 225.795 333.366 225.842C333.29 225.887 333.205 225.91 333.11 225.91ZM333.11 222.22C332.971 222.22 332.85 222.17 332.748 222.071C332.649 221.969 332.599 221.848 332.599 221.709C332.599 221.569 332.649 221.45 332.748 221.35C332.85 221.248 332.971 221.197 333.11 221.197C333.252 221.197 333.373 221.248 333.472 221.35C333.572 221.45 333.622 221.569 333.622 221.709C333.622 221.801 333.598 221.886 333.551 221.964C333.506 222.043 333.444 222.105 333.366 222.153C333.29 222.198 333.205 222.22 333.11 222.22ZM337.525 227.099C337.014 227.099 336.577 226.953 336.215 226.659C335.855 226.363 335.578 225.936 335.384 225.377C335.192 224.818 335.096 224.147 335.096 223.364C335.096 222.582 335.192 221.914 335.384 221.357C335.578 220.799 335.856 220.371 336.218 220.075C336.583 219.777 337.019 219.628 337.525 219.628C338.032 219.628 338.466 219.777 338.828 220.075C339.193 220.371 339.471 220.799 339.663 221.357C339.857 221.914 339.954 222.582 339.954 223.364C339.954 224.147 339.857 224.818 339.663 225.377C339.471 225.936 339.194 226.363 338.832 226.659C338.472 226.953 338.037 227.099 337.525 227.099ZM337.525 226.503C338.086 226.503 338.524 226.229 338.839 225.683C339.154 225.133 339.311 224.36 339.311 223.364C339.311 222.701 339.239 222.135 339.095 221.666C338.953 221.195 338.748 220.835 338.48 220.587C338.215 220.338 337.897 220.214 337.525 220.214C336.969 220.214 336.532 220.491 336.215 221.045C335.898 221.596 335.739 222.369 335.739 223.364C335.739 224.027 335.81 224.592 335.952 225.061C336.096 225.53 336.301 225.887 336.566 226.134C336.834 226.38 337.154 226.503 337.525 226.503ZM343.658 227.099C343.147 227.099 342.71 226.953 342.348 226.659C341.988 226.363 341.711 225.936 341.517 225.377C341.325 224.818 341.229 224.147 341.229 223.364C341.229 222.582 341.325 221.914 341.517 221.357C341.711 220.799 341.989 220.371 342.351 220.075C342.716 219.777 343.151 219.628 343.658 219.628C344.165 219.628 344.599 219.777 344.961 220.075C345.326 220.371 345.604 220.799 345.796 221.357C345.99 221.914 346.087 222.582 346.087 223.364C346.087 224.147 345.99 224.818 345.796 225.377C345.604 225.936 345.327 226.363 344.965 226.659C344.605 226.953 344.169 227.099 343.658 227.099ZM343.658 226.503C344.219 226.503 344.657 226.229 344.972 225.683C345.287 225.133 345.444 224.36 345.444 223.364C345.444 222.701 345.372 222.135 345.228 221.666C345.086 221.195 344.881 220.835 344.613 220.587C344.348 220.338 344.03 220.214 343.658 220.214C343.102 220.214 342.665 220.491 342.348 221.045C342.03 221.596 341.872 222.369 341.872 223.364C341.872 224.027 341.943 224.592 342.085 225.061C342.229 225.53 342.434 225.887 342.699 226.134C342.967 226.38 343.286 226.503 343.658 226.503Z" fill="white" fill-opacity="0.6"/>
<path d="M373.282 227L376.595 220.37V220.324H372.778V219.727H377.291V220.352L373.981 227H373.282ZM378.894 225.91C378.755 225.91 378.634 225.86 378.532 225.761C378.433 225.659 378.383 225.538 378.383 225.398C378.383 225.256 378.433 225.136 378.532 225.036C378.634 224.937 378.755 224.887 378.894 224.887C379.036 224.887 379.157 224.937 379.257 225.036C379.356 225.136 379.406 225.256 379.406 225.398C379.406 225.491 379.382 225.576 379.335 225.654C379.29 225.732 379.228 225.795 379.15 225.842C379.074 225.887 378.989 225.91 378.894 225.91ZM378.894 222.22C378.755 222.22 378.634 222.17 378.532 222.071C378.433 221.969 378.383 221.848 378.383 221.709C378.383 221.569 378.433 221.45 378.532 221.35C378.634 221.248 378.755 221.197 378.894 221.197C379.036 221.197 379.157 221.248 379.257 221.35C379.356 221.45 379.406 221.569 379.406 221.709C379.406 221.801 379.382 221.886 379.335 221.964C379.29 222.043 379.228 222.105 379.15 222.153C379.074 222.198 378.989 222.22 378.894 222.22ZM383.309 227.099C382.798 227.099 382.361 226.953 381.999 226.659C381.639 226.363 381.362 225.936 381.168 225.377C380.976 224.818 380.88 224.147 380.88 223.364C380.88 222.582 380.976 221.914 381.168 221.357C381.362 220.799 381.64 220.371 382.003 220.075C382.367 219.777 382.803 219.628 383.309 219.628C383.816 219.628 384.25 219.777 384.613 220.075C384.977 220.371 385.255 220.799 385.447 221.357C385.641 221.914 385.738 222.582 385.738 223.364C385.738 224.147 385.641 224.818 385.447 225.377C385.255 225.936 384.978 226.363 384.616 226.659C384.256 226.953 383.821 227.099 383.309 227.099ZM383.309 226.503C383.87 226.503 384.308 226.229 384.623 225.683C384.938 225.133 385.096 224.36 385.096 223.364C385.096 222.701 385.023 222.135 384.879 221.666C384.737 221.195 384.532 220.835 384.265 220.587C383.999 220.338 383.681 220.214 383.309 220.214C382.753 220.214 382.316 220.491 381.999 221.045C381.682 221.596 381.523 222.369 381.523 223.364C381.523 224.027 381.594 224.592 381.736 225.061C381.881 225.53 382.085 225.887 382.351 226.134C382.618 226.38 382.938 226.503 383.309 226.503ZM389.442 227.099C388.931 227.099 388.494 226.953 388.132 226.659C387.772 226.363 387.495 225.936 387.301 225.377C387.109 224.818 387.013 224.147 387.013 223.364C387.013 222.582 387.109 221.914 387.301 221.357C387.495 220.799 387.773 220.371 388.135 220.075C388.5 219.777 388.936 219.628 389.442 219.628C389.949 219.628 390.383 219.777 390.745 220.075C391.11 220.371 391.388 220.799 391.58 221.357C391.774 221.914 391.871 222.582 391.871 223.364C391.871 224.147 391.774 224.818 391.58 225.377C391.388 225.936 391.111 226.363 390.749 226.659C390.389 226.953 389.954 227.099 389.442 227.099ZM389.442 226.503C390.003 226.503 390.441 226.229 390.756 225.683C391.071 225.133 391.228 224.36 391.228 223.364C391.228 222.701 391.156 222.135 391.012 221.666C390.87 221.195 390.665 220.835 390.397 220.587C390.132 220.338 389.814 220.214 389.442 220.214C388.886 220.214 388.449 220.491 388.132 221.045C387.815 221.596 387.656 222.369 387.656 223.364C387.656 224.027 387.727 224.592 387.869 225.061C388.013 225.53 388.218 225.887 388.483 226.134C388.751 226.38 389.071 226.503 389.442 226.503ZM399.098 223.065V223.662H396.072V223.065H399.098ZM405.721 227.099C405.257 227.099 404.843 227.012 404.481 226.837C404.119 226.661 403.835 226.422 403.629 226.119C403.423 225.814 403.32 225.469 403.32 225.086C403.32 224.785 403.383 224.505 403.508 224.244C403.634 223.982 403.807 223.761 404.027 223.584C404.247 223.404 404.494 223.287 404.769 223.232V223.193C404.411 223.089 404.124 222.884 403.906 222.579C403.688 222.271 403.58 221.922 403.583 221.531C403.58 221.169 403.673 220.845 403.86 220.558C404.047 220.272 404.301 220.046 404.623 219.88C404.948 219.712 405.313 219.628 405.721 219.628C406.125 219.628 406.489 219.712 406.811 219.88C407.133 220.046 407.387 220.272 407.574 220.558C407.764 220.845 407.86 221.169 407.862 221.531C407.86 221.92 407.749 222.269 407.532 222.579C407.314 222.887 407.027 223.091 406.672 223.193V223.232C406.947 223.284 407.193 223.4 407.411 223.58C407.629 223.76 407.802 223.982 407.929 224.244C408.057 224.505 408.121 224.785 408.121 225.086C408.121 225.469 408.017 225.814 407.809 226.119C407.603 226.422 407.319 226.661 406.956 226.837C406.597 227.012 406.185 227.099 405.721 227.099ZM405.721 226.503C406.066 226.503 406.369 226.441 406.63 226.318C406.892 226.193 407.097 226.021 407.244 225.803C407.393 225.585 407.468 225.336 407.468 225.054C407.468 224.763 407.391 224.504 407.237 224.276C407.083 224.047 406.875 223.866 406.612 223.733C406.349 223.598 406.052 223.531 405.721 223.531C405.389 223.531 405.091 223.598 404.826 223.733C404.563 223.866 404.355 224.047 404.201 224.276C404.049 224.504 403.973 224.763 403.973 225.054C403.973 225.336 404.046 225.585 404.19 225.803C404.337 226.021 404.542 226.193 404.804 226.318C405.07 226.441 405.375 226.503 405.721 226.503ZM405.721 222.962C406.005 222.962 406.259 222.902 406.484 222.781C406.709 222.661 406.887 222.496 407.017 222.288C407.149 222.077 407.217 221.838 407.219 221.57C407.217 221.305 407.151 221.071 407.02 220.867C406.89 220.661 406.713 220.501 406.488 220.388C406.265 220.272 406.009 220.214 405.721 220.214C405.432 220.214 405.174 220.272 404.946 220.388C404.722 220.501 404.544 220.661 404.414 220.867C404.286 221.071 404.223 221.305 404.226 221.57C404.223 221.838 404.287 222.077 404.417 222.288C404.55 222.496 404.729 222.661 404.954 222.781C405.181 222.902 405.437 222.962 405.721 222.962ZM410.125 225.91C409.985 225.91 409.864 225.86 409.763 225.761C409.663 225.659 409.614 225.538 409.614 225.398C409.614 225.256 409.663 225.136 409.763 225.036C409.864 224.937 409.985 224.887 410.125 224.887C410.267 224.887 410.388 224.937 410.487 225.036C410.587 225.136 410.636 225.256 410.636 225.398C410.636 225.491 410.613 225.576 410.565 225.654C410.52 225.732 410.459 225.795 410.381 225.842C410.305 225.887 410.22 225.91 410.125 225.91ZM410.125 222.22C409.985 222.22 409.864 222.17 409.763 222.071C409.663 221.969 409.614 221.848 409.614 221.709C409.614 221.569 409.663 221.45 409.763 221.35C409.864 221.248 409.985 221.197 410.125 221.197C410.267 221.197 410.388 221.248 410.487 221.35C410.587 221.45 410.636 221.569 410.636 221.709C410.636 221.801 410.613 221.886 410.565 221.964C410.52 222.043 410.459 222.105 410.381 222.153C410.305 222.198 410.22 222.22 410.125 222.22ZM414.54 227.099C414.028 227.099 413.592 226.953 413.229 226.659C412.87 226.363 412.593 225.936 412.399 225.377C412.207 224.818 412.111 224.147 412.111 223.364C412.111 222.582 412.207 221.914 412.399 221.357C412.593 220.799 412.871 220.371 413.233 220.075C413.598 219.777 414.033 219.628 414.54 219.628C415.046 219.628 415.481 219.777 415.843 220.075C416.208 220.371 416.486 220.799 416.678 221.357C416.872 221.914 416.969 222.582 416.969 223.364C416.969 224.147 416.872 224.818 416.678 225.377C416.486 225.936 416.209 226.363 415.847 226.659C415.487 226.953 415.051 227.099 414.54 227.099ZM414.54 226.503C415.101 226.503 415.539 226.229 415.854 225.683C416.169 225.133 416.326 224.36 416.326 223.364C416.326 222.701 416.254 222.135 416.109 221.666C415.967 221.195 415.763 220.835 415.495 220.587C415.23 220.338 414.912 220.214 414.54 220.214C413.984 220.214 413.547 220.491 413.229 221.045C412.912 221.596 412.754 222.369 412.754 223.364C412.754 224.027 412.825 224.592 412.967 225.061C413.111 225.53 413.316 225.887 413.581 226.134C413.849 226.38 414.168 226.503 414.54 226.503ZM420.673 227.099C420.161 227.099 419.725 226.953 419.362 226.659C419.002 226.363 418.725 225.936 418.531 225.377C418.34 224.818 418.244 224.147 418.244 223.364C418.244 222.582 418.34 221.914 418.531 221.357C418.725 220.799 419.004 220.371 419.366 220.075C419.73 219.777 420.166 219.628 420.673 219.628C421.179 219.628 421.614 219.777 421.976 220.075C422.341 220.371 422.619 220.799 422.81 221.357C423.005 221.914 423.102 222.582 423.102 223.364C423.102 224.147 423.005 224.818 422.81 225.377C422.619 225.936 422.342 226.363 421.979 226.659C421.62 226.953 421.184 227.099 420.673 227.099ZM420.673 226.503C421.234 226.503 421.672 226.229 421.987 225.683C422.301 225.133 422.459 224.36 422.459 223.364C422.459 222.701 422.387 222.135 422.242 221.666C422.1 221.195 421.895 220.835 421.628 220.587C421.363 220.338 421.044 220.214 420.673 220.214C420.116 220.214 419.68 220.491 419.362 221.045C419.045 221.596 418.886 222.369 418.886 223.364C418.886 224.027 418.957 224.592 419.1 225.061C419.244 225.53 419.449 225.887 419.714 226.134C419.981 226.38 420.301 226.503 420.673 226.503Z" fill="white" fill-opacity="0.6"/>
<path d="M453.326 227.099C452.862 227.099 452.449 227.012 452.087 226.837C451.725 226.661 451.44 226.422 451.234 226.119C451.028 225.814 450.926 225.469 450.926 225.086C450.926 224.785 450.988 224.505 451.114 224.244C451.239 223.982 451.412 223.761 451.632 223.584C451.852 223.404 452.1 223.287 452.374 223.232V223.193C452.017 223.089 451.729 222.884 451.511 222.579C451.294 222.271 451.186 221.922 451.188 221.531C451.186 221.169 451.278 220.845 451.465 220.558C451.652 220.272 451.907 220.046 452.229 219.88C452.553 219.712 452.919 219.628 453.326 219.628C453.731 219.628 454.094 219.712 454.416 219.88C454.738 220.046 454.993 220.272 455.18 220.558C455.369 220.845 455.465 221.169 455.467 221.531C455.465 221.92 455.355 222.269 455.137 222.579C454.919 222.887 454.633 223.091 454.278 223.193V223.232C454.552 223.284 454.799 223.4 455.016 223.58C455.234 223.76 455.407 223.982 455.535 224.244C455.663 224.505 455.727 224.785 455.727 225.086C455.727 225.469 455.622 225.814 455.414 226.119C455.208 226.422 454.924 226.661 454.562 226.837C454.202 227.012 453.79 227.099 453.326 227.099ZM453.326 226.503C453.672 226.503 453.975 226.441 454.235 226.318C454.498 226.193 454.703 226.021 454.85 225.803C454.999 225.585 455.073 225.336 455.073 225.054C455.073 224.763 454.996 224.504 454.842 224.276C454.689 224.047 454.48 223.866 454.217 223.733C453.955 223.598 453.658 223.531 453.326 223.531C452.995 223.531 452.696 223.598 452.431 223.733C452.168 223.866 451.96 224.047 451.806 224.276C451.655 224.504 451.579 224.763 451.579 225.054C451.579 225.336 451.651 225.585 451.796 225.803C451.942 226.021 452.147 226.193 452.41 226.318C452.675 226.441 452.98 226.503 453.326 226.503ZM453.326 222.962C453.61 222.962 453.865 222.902 454.09 222.781C454.314 222.661 454.492 222.496 454.622 222.288C454.755 222.077 454.822 221.838 454.825 221.57C454.822 221.305 454.756 221.071 454.626 220.867C454.496 220.661 454.318 220.501 454.093 220.388C453.871 220.272 453.615 220.214 453.326 220.214C453.037 220.214 452.779 220.272 452.552 220.388C452.327 220.501 452.149 220.661 452.019 220.867C451.891 221.071 451.829 221.305 451.831 221.57C451.829 221.838 451.893 222.077 452.023 222.288C452.155 222.496 452.334 222.661 452.559 222.781C452.786 222.902 453.042 222.962 453.326 222.962ZM457.73 225.91C457.591 225.91 457.47 225.86 457.368 225.761C457.269 225.659 457.219 225.538 457.219 225.398C457.219 225.256 457.269 225.136 457.368 225.036C457.47 224.937 457.591 224.887 457.73 224.887C457.872 224.887 457.993 224.937 458.093 225.036C458.192 225.136 458.242 225.256 458.242 225.398C458.242 225.491 458.218 225.576 458.171 225.654C458.126 225.732 458.064 225.795 457.986 225.842C457.91 225.887 457.825 225.91 457.73 225.91ZM457.73 222.22C457.591 222.22 457.47 222.17 457.368 222.071C457.269 221.969 457.219 221.848 457.219 221.709C457.219 221.569 457.269 221.45 457.368 221.35C457.47 221.248 457.591 221.197 457.73 221.197C457.872 221.197 457.993 221.248 458.093 221.35C458.192 221.45 458.242 221.569 458.242 221.709C458.242 221.801 458.218 221.886 458.171 221.964C458.126 222.043 458.064 222.105 457.986 222.153C457.91 222.198 457.825 222.22 457.73 222.22ZM462.145 227.099C461.634 227.099 461.197 226.953 460.835 226.659C460.475 226.363 460.198 225.936 460.004 225.377C459.812 224.818 459.716 224.147 459.716 223.364C459.716 222.582 459.812 221.914 460.004 221.357C460.198 220.799 460.476 220.371 460.839 220.075C461.203 219.777 461.639 219.628 462.145 219.628C462.652 219.628 463.086 219.777 463.449 220.075C463.813 220.371 464.091 220.799 464.283 221.357C464.477 221.914 464.574 222.582 464.574 223.364C464.574 224.147 464.477 224.818 464.283 225.377C464.091 225.936 463.814 226.363 463.452 226.659C463.092 226.953 462.657 227.099 462.145 227.099ZM462.145 226.503C462.706 226.503 463.144 226.229 463.459 225.683C463.774 225.133 463.932 224.36 463.932 223.364C463.932 222.701 463.859 222.135 463.715 221.666C463.573 221.195 463.368 220.835 463.101 220.587C462.835 220.338 462.517 220.214 462.145 220.214C461.589 220.214 461.152 220.491 460.835 221.045C460.518 221.596 460.359 222.369 460.359 223.364C460.359 224.027 460.43 224.592 460.572 225.061C460.717 225.53 460.921 225.887 461.187 226.134C461.454 226.38 461.774 226.503 462.145 226.503ZM468.278 227.099C467.767 227.099 467.33 226.953 466.968 226.659C466.608 226.363 466.331 225.936 466.137 225.377C465.945 224.818 465.849 224.147 465.849 223.364C465.849 222.582 465.945 221.914 466.137 221.357C466.331 220.799 466.609 220.371 466.971 220.075C467.336 219.777 467.772 219.628 468.278 219.628C468.785 219.628 469.219 219.777 469.581 220.075C469.946 220.371 470.224 220.799 470.416 221.357C470.61 221.914 470.707 222.582 470.707 223.364C470.707 224.147 470.61 224.818 470.416 225.377C470.224 225.936 469.947 226.363 469.585 226.659C469.225 226.953 468.79 227.099 468.278 227.099ZM468.278 226.503C468.839 226.503 469.277 226.229 469.592 225.683C469.907 225.133 470.064 224.36 470.064 223.364C470.064 222.701 469.992 222.135 469.848 221.666C469.706 221.195 469.501 220.835 469.233 220.587C468.968 220.338 468.65 220.214 468.278 220.214C467.722 220.214 467.285 220.491 466.968 221.045C466.651 221.596 466.492 222.369 466.492 223.364C466.492 224.027 466.563 224.592 466.705 225.061C466.849 225.53 467.054 225.887 467.319 226.134C467.587 226.38 467.906 226.503 468.278 226.503ZM477.934 223.065V223.662H474.908V223.065H477.934ZM481.684 219.628C481.987 219.63 482.28 219.692 482.564 219.812C482.851 219.931 483.109 220.123 483.339 220.388C483.568 220.651 483.75 221.001 483.885 221.439C484.02 221.875 484.088 222.411 484.088 223.048C484.088 223.642 484.036 224.186 483.932 224.681C483.827 225.176 483.671 225.604 483.463 225.967C483.257 226.326 482.996 226.606 482.682 226.805C482.369 227.001 482.003 227.099 481.584 227.099C481.194 227.099 480.847 227.018 480.544 226.854C480.243 226.691 479.999 226.465 479.812 226.176C479.625 225.885 479.509 225.549 479.464 225.168H480.118C480.182 225.556 480.338 225.875 480.586 226.126C480.837 226.377 481.17 226.503 481.584 226.503C482.178 226.503 482.64 226.226 482.969 225.672C483.298 225.118 483.463 224.33 483.463 223.307H483.417C483.303 223.52 483.154 223.706 482.969 223.864C482.787 224.023 482.579 224.147 482.344 224.237C482.11 224.325 481.862 224.369 481.602 224.369C481.197 224.369 480.827 224.267 480.491 224.063C480.154 223.857 479.886 223.577 479.684 223.222C479.483 222.864 479.383 222.457 479.383 222C479.383 221.569 479.477 221.174 479.667 220.814C479.858 220.452 480.126 220.163 480.469 219.947C480.815 219.73 481.22 219.623 481.684 219.628ZM481.684 220.224C481.369 220.224 481.086 220.305 480.835 220.466C480.586 220.625 480.389 220.839 480.242 221.109C480.098 221.376 480.025 221.673 480.025 222C480.025 222.329 480.098 222.629 480.242 222.898C480.389 223.166 480.586 223.379 480.835 223.538C481.086 223.694 481.369 223.772 481.684 223.772C481.925 223.772 482.15 223.723 482.358 223.626C482.567 223.527 482.747 223.392 482.898 223.222C483.052 223.051 483.168 222.858 483.246 222.643C483.327 222.425 483.359 222.196 483.342 221.957C483.314 221.626 483.225 221.33 483.076 221.07C482.929 220.807 482.735 220.601 482.493 220.452C482.254 220.3 481.984 220.224 481.684 220.224ZM486.119 225.91C485.979 225.91 485.859 225.86 485.757 225.761C485.657 225.659 485.608 225.538 485.608 225.398C485.608 225.256 485.657 225.136 485.757 225.036C485.859 224.937 485.979 224.887 486.119 224.887C486.261 224.887 486.382 224.937 486.481 225.036C486.581 225.136 486.63 225.256 486.63 225.398C486.63 225.491 486.607 225.576 486.559 225.654C486.514 225.732 486.453 225.795 486.375 225.842C486.299 225.887 486.214 225.91 486.119 225.91ZM486.119 222.22C485.979 222.22 485.859 222.17 485.757 222.071C485.657 221.969 485.608 221.848 485.608 221.709C485.608 221.569 485.657 221.45 485.757 221.35C485.859 221.248 485.979 221.197 486.119 221.197C486.261 221.197 486.382 221.248 486.481 221.35C486.581 221.45 486.63 221.569 486.63 221.709C486.63 221.801 486.607 221.886 486.559 221.964C486.514 222.043 486.453 222.105 486.375 222.153C486.299 222.198 486.214 222.22 486.119 222.22ZM490.534 227.099C490.023 227.099 489.586 226.953 489.224 226.659C488.864 226.363 488.587 225.936 488.393 225.377C488.201 224.818 488.105 224.147 488.105 223.364C488.105 222.582 488.201 221.914 488.393 221.357C488.587 220.799 488.865 220.371 489.227 220.075C489.592 219.777 490.027 219.628 490.534 219.628C491.041 219.628 491.475 219.777 491.837 220.075C492.202 220.371 492.48 220.799 492.672 221.357C492.866 221.914 492.963 222.582 492.963 223.364C492.963 224.147 492.866 224.818 492.672 225.377C492.48 225.936 492.203 226.363 491.841 226.659C491.481 226.953 491.045 227.099 490.534 227.099ZM490.534 226.503C491.095 226.503 491.533 226.229 491.848 225.683C492.163 225.133 492.32 224.36 492.32 223.364C492.32 222.701 492.248 222.135 492.104 221.666C491.962 221.195 491.757 220.835 491.489 220.587C491.224 220.338 490.906 220.214 490.534 220.214C489.978 220.214 489.541 220.491 489.224 221.045C488.906 221.596 488.748 222.369 488.748 223.364C488.748 224.027 488.819 224.592 488.961 225.061C489.105 225.53 489.31 225.887 489.575 226.134C489.843 226.38 490.162 226.503 490.534 226.503ZM496.667 227.099C496.155 227.099 495.719 226.953 495.356 226.659C494.997 226.363 494.72 225.936 494.525 225.377C494.334 224.818 494.238 224.147 494.238 223.364C494.238 222.582 494.334 221.914 494.525 221.357C494.72 220.799 494.998 220.371 495.36 220.075C495.725 219.777 496.16 219.628 496.667 219.628C497.173 219.628 497.608 219.777 497.97 220.075C498.335 220.371 498.613 220.799 498.805 221.357C498.999 221.914 499.096 222.582 499.096 223.364C499.096 224.147 498.999 224.818 498.805 225.377C498.613 225.936 498.336 226.363 497.974 226.659C497.614 226.953 497.178 227.099 496.667 227.099ZM496.667 226.503C497.228 226.503 497.666 226.229 497.981 225.683C498.296 225.133 498.453 224.36 498.453 223.364C498.453 222.701 498.381 222.135 498.236 221.666C498.094 221.195 497.89 220.835 497.622 220.587C497.357 220.338 497.039 220.214 496.667 220.214C496.11 220.214 495.674 220.491 495.356 221.045C495.039 221.596 494.881 222.369 494.881 223.364C494.881 224.027 494.952 224.592 495.094 225.061C495.238 225.53 495.443 225.887 495.708 226.134C495.976 226.38 496.295 226.503 496.667 226.503Z" fill="white" fill-opacity="0.6"/>
<path d="M141.998 225.438V224.898L145.24 219.727H145.638V220.633H145.343L142.74 224.795V224.841H146.991V225.438H141.998ZM145.393 227V225.267V225.018V219.727H146.025V227H145.393ZM148.961 225.91C148.821 225.91 148.7 225.86 148.599 225.761C148.499 225.659 148.449 225.538 148.449 225.398C148.449 225.256 148.499 225.136 148.599 225.036C148.7 224.937 148.821 224.887 148.961 224.887C149.103 224.887 149.224 224.937 149.323 225.036C149.422 225.136 149.472 225.256 149.472 225.398C149.472 225.491 149.449 225.576 149.401 225.654C149.356 225.732 149.295 225.795 149.217 225.842C149.141 225.887 149.056 225.91 148.961 225.91ZM148.961 222.22C148.821 222.22 148.7 222.17 148.599 222.071C148.499 221.969 148.449 221.848 148.449 221.709C148.449 221.569 148.499 221.45 148.599 221.35C148.7 221.248 148.821 221.197 148.961 221.197C149.103 221.197 149.224 221.248 149.323 221.35C149.422 221.45 149.472 221.569 149.472 221.709C149.472 221.801 149.449 221.886 149.401 221.964C149.356 222.043 149.295 222.105 149.217 222.153C149.141 222.198 149.056 222.22 148.961 222.22ZM153.376 227.099C152.864 227.099 152.428 226.953 152.065 226.659C151.706 226.363 151.429 225.936 151.234 225.377C151.043 224.818 150.947 224.147 150.947 223.364C150.947 222.582 151.043 221.914 151.234 221.357C151.429 220.799 151.707 220.371 152.069 220.075C152.434 219.777 152.869 219.628 153.376 219.628C153.882 219.628 154.317 219.777 154.679 220.075C155.044 220.371 155.322 220.799 155.514 221.357C155.708 221.914 155.805 222.582 155.805 223.364C155.805 224.147 155.708 224.818 155.514 225.377C155.322 225.936 155.045 226.363 154.683 226.659C154.323 226.953 153.887 227.099 153.376 227.099ZM153.376 226.503C153.937 226.503 154.375 226.229 154.69 225.683C155.005 225.133 155.162 224.36 155.162 223.364C155.162 222.701 155.09 222.135 154.945 221.666C154.803 221.195 154.599 220.835 154.331 220.587C154.066 220.338 153.747 220.214 153.376 220.214C152.819 220.214 152.383 220.491 152.065 221.045C151.748 221.596 151.59 222.369 151.59 223.364C151.59 224.027 151.661 224.592 151.803 225.061C151.947 225.53 152.152 225.887 152.417 226.134C152.685 226.38 153.004 226.503 153.376 226.503ZM159.509 227.099C158.997 227.099 158.56 226.953 158.198 226.659C157.838 226.363 157.561 225.936 157.367 225.377C157.176 224.818 157.08 224.147 157.08 223.364C157.08 222.582 157.176 221.914 157.367 221.357C157.561 220.799 157.84 220.371 158.202 220.075C158.566 219.777 159.002 219.628 159.509 219.628C160.015 219.628 160.45 219.777 160.812 220.075C161.176 220.371 161.455 220.799 161.646 221.357C161.841 221.914 161.938 222.582 161.938 223.364C161.938 224.147 161.841 224.818 161.646 225.377C161.455 225.936 161.178 226.363 160.815 226.659C160.456 226.953 160.02 227.099 159.509 227.099ZM159.509 226.503C160.07 226.503 160.508 226.229 160.823 225.683C161.137 225.133 161.295 224.36 161.295 223.364C161.295 222.701 161.223 222.135 161.078 221.666C160.936 221.195 160.731 220.835 160.464 220.587C160.199 220.338 159.88 220.214 159.509 220.214C158.952 220.214 158.515 220.491 158.198 221.045C157.881 221.596 157.722 222.369 157.722 223.364C157.722 224.027 157.793 224.592 157.935 225.061C158.08 225.53 158.285 225.887 158.55 226.134C158.817 226.38 159.137 226.503 159.509 226.503ZM169.164 223.065V223.662H166.139V223.065H169.164ZM175.666 227.099C175.261 227.099 174.899 227.018 174.58 226.854C174.262 226.689 174.009 226.461 173.82 226.173C173.633 225.884 173.533 225.554 173.521 225.182H174.164C174.185 225.568 174.337 225.885 174.619 226.134C174.9 226.38 175.25 226.503 175.666 226.503C175.991 226.503 176.279 226.426 176.533 226.272C176.786 226.116 176.984 225.903 177.126 225.633C177.27 225.361 177.342 225.054 177.342 224.713C177.34 224.358 177.263 224.045 177.112 223.776C176.96 223.503 176.754 223.29 176.494 223.136C176.236 222.982 175.946 222.906 175.624 222.906C175.38 222.903 175.141 222.943 174.906 223.026C174.672 223.109 174.477 223.216 174.32 223.346L173.656 223.261L174.093 219.727H177.687V220.324H174.651L174.359 222.756H174.395C174.556 222.621 174.751 222.511 174.981 222.426C175.213 222.341 175.458 222.298 175.716 222.298C176.145 222.298 176.529 222.401 176.87 222.607C177.213 222.813 177.484 223.097 177.683 223.46C177.885 223.819 177.985 224.234 177.985 224.702C177.985 225.162 177.885 225.572 177.683 225.935C177.484 226.295 177.21 226.579 176.859 226.787C176.511 226.995 176.114 227.099 175.666 227.099ZM180.025 225.91C179.886 225.91 179.765 225.86 179.663 225.761C179.564 225.659 179.514 225.538 179.514 225.398C179.514 225.256 179.564 225.136 179.663 225.036C179.765 224.937 179.886 224.887 180.025 224.887C180.167 224.887 180.288 224.937 180.388 225.036C180.487 225.136 180.537 225.256 180.537 225.398C180.537 225.491 180.513 225.576 180.466 225.654C180.421 225.732 180.359 225.795 180.281 225.842C180.205 225.887 180.12 225.91 180.025 225.91ZM180.025 222.22C179.886 222.22 179.765 222.17 179.663 222.071C179.564 221.969 179.514 221.848 179.514 221.709C179.514 221.569 179.564 221.45 179.663 221.35C179.765 221.248 179.886 221.197 180.025 221.197C180.167 221.197 180.288 221.248 180.388 221.35C180.487 221.45 180.537 221.569 180.537 221.709C180.537 221.801 180.513 221.886 180.466 221.964C180.421 222.043 180.359 222.105 180.281 222.153C180.205 222.198 180.12 222.22 180.025 222.22ZM184.44 227.099C183.929 227.099 183.492 226.953 183.13 226.659C182.77 226.363 182.493 225.936 182.299 225.377C182.107 224.818 182.011 224.147 182.011 223.364C182.011 222.582 182.107 221.914 182.299 221.357C182.493 220.799 182.771 220.371 183.133 220.075C183.498 219.777 183.934 219.628 184.44 219.628C184.947 219.628 185.381 219.777 185.744 220.075C186.108 220.371 186.386 220.799 186.578 221.357C186.772 221.914 186.869 222.582 186.869 223.364C186.869 224.147 186.772 224.818 186.578 225.377C186.386 225.936 186.109 226.363 185.747 226.659C185.387 226.953 184.952 227.099 184.44 227.099ZM184.44 226.503C185.001 226.503 185.439 226.229 185.754 225.683C186.069 225.133 186.226 224.36 186.226 223.364C186.226 222.701 186.154 222.135 186.01 221.666C185.868 221.195 185.663 220.835 185.396 220.587C185.13 220.338 184.812 220.214 184.44 220.214C183.884 220.214 183.447 220.491 183.13 221.045C182.813 221.596 182.654 222.369 182.654 223.364C182.654 224.027 182.725 224.592 182.867 225.061C183.012 225.53 183.216 225.887 183.481 226.134C183.749 226.38 184.069 226.503 184.44 226.503ZM190.573 227.099C190.062 227.099 189.625 226.953 189.263 226.659C188.903 226.363 188.626 225.936 188.432 225.377C188.24 224.818 188.144 224.147 188.144 223.364C188.144 222.582 188.24 221.914 188.432 221.357C188.626 220.799 188.904 220.371 189.266 220.075C189.631 219.777 190.066 219.628 190.573 219.628C191.08 219.628 191.514 219.777 191.876 220.075C192.241 220.371 192.519 220.799 192.711 221.357C192.905 221.914 193.002 222.582 193.002 223.364C193.002 224.147 192.905 224.818 192.711 225.377C192.519 225.936 192.242 226.363 191.88 226.659C191.52 226.953 191.084 227.099 190.573 227.099ZM190.573 226.503C191.134 226.503 191.572 226.229 191.887 225.683C192.202 225.133 192.359 224.36 192.359 223.364C192.359 222.701 192.287 222.135 192.143 221.666C192.001 221.195 191.796 220.835 191.528 220.587C191.263 220.338 190.945 220.214 190.573 220.214C190.017 220.214 189.58 220.491 189.263 221.045C188.945 221.596 188.787 222.369 188.787 223.364C188.787 224.027 188.858 224.592 189 225.061C189.144 225.53 189.349 225.887 189.614 226.134C189.882 226.38 190.201 226.503 190.573 226.503Z" fill="white" fill-opacity="0.6"/>
<path d="M48 36H608" stroke="white" stroke-opacity="0.1"/>
<path d="M26.7081 64V63.5135L29.0838 60.843C29.3939 60.4927 29.6437 60.1932 29.8331 59.9446C30.0225 59.696 30.1598 59.4664 30.245 59.2557C30.3326 59.045 30.3764 58.826 30.3764 58.5987C30.3764 58.3217 30.3113 58.0803 30.1811 57.8743C30.0533 57.666 29.8769 57.5038 29.652 57.3878C29.4271 57.2718 29.1738 57.2138 28.892 57.2138C28.5938 57.2138 28.3321 57.2777 28.1072 57.4055C27.8847 57.5334 27.7119 57.7086 27.5888 57.9311C27.4657 58.1536 27.4041 58.4093 27.4041 58.6982H26.7685C26.7685 58.2957 26.8608 57.9394 27.0455 57.6293C27.2325 57.3168 27.487 57.0717 27.8089 56.8942C28.1333 56.7166 28.5002 56.6278 28.9098 56.6278C29.3146 56.6278 29.6745 56.7154 29.9893 56.8906C30.3042 57.0634 30.5516 57.299 30.7315 57.5973C30.9115 57.8956 31.0014 58.2294 31.0014 58.5987C31.0014 58.8662 30.9541 59.1255 30.8594 59.3764C30.767 59.6274 30.6072 59.9067 30.38 60.2145C30.1527 60.5223 29.8378 60.8987 29.4354 61.3438L27.6314 63.3572V63.4034H31.2287V64H26.7081ZM36.4906 62.6506V62.3203C36.4906 62.0481 36.545 61.803 36.6539 61.5852C36.7628 61.3651 36.9179 61.1911 37.1191 61.0632C37.3204 60.9354 37.5595 60.8714 37.8365 60.8714C38.1158 60.8714 38.3549 60.9354 38.5538 61.0632C38.7527 61.1911 38.9054 61.3651 39.0119 61.5852C39.1184 61.803 39.1717 62.0481 39.1717 62.3203V62.6506C39.1717 62.9228 39.1172 63.1679 39.0083 63.3857C38.9018 63.6035 38.7491 63.7775 38.5502 63.9077C38.3514 64.0355 38.1135 64.0994 37.8365 64.0994C37.5547 64.0994 37.3133 64.0355 37.112 63.9077C36.9132 63.7775 36.7593 63.6035 36.6504 63.3857C36.5439 63.1679 36.4906 62.9228 36.4906 62.6506ZM37.0481 62.3203V62.6506C37.0481 62.9181 37.1132 63.1465 37.2434 63.3359C37.376 63.523 37.5737 63.6165 37.8365 63.6165C38.0922 63.6165 38.2851 63.523 38.4153 63.3359C38.5455 63.1465 38.6106 62.9181 38.6106 62.6506V62.3203C38.6106 62.0528 38.5467 61.8255 38.4189 61.6385C38.291 61.4491 38.0969 61.3544 37.8365 61.3544C37.5784 61.3544 37.3819 61.4491 37.247 61.6385C37.1144 61.8255 37.0481 62.0528 37.0481 62.3203ZM32.8258 58.407V58.0767C32.8258 57.8045 32.8803 57.5594 32.9892 57.3416C33.0981 57.1238 33.2531 56.951 33.4544 56.8232C33.6556 56.6929 33.8947 56.6278 34.1717 56.6278C34.4511 56.6278 34.6902 56.6929 34.889 56.8232C35.0879 56.951 35.2406 57.1238 35.3471 57.3416C35.4537 57.5594 35.5069 57.8045 35.5069 58.0767V58.407C35.5069 58.6792 35.4525 58.9254 35.3436 59.1456C35.237 59.3634 35.0843 59.5362 34.8855 59.6641C34.6866 59.7919 34.4487 59.8558 34.1717 59.8558C33.89 59.8558 33.6485 59.7919 33.4473 59.6641C33.2484 59.5362 33.0945 59.3634 32.9856 59.1456C32.8791 58.9254 32.8258 58.6792 32.8258 58.407ZM33.3833 58.0767V58.407C33.3833 58.6745 33.4484 58.9029 33.5787 59.0923C33.7112 59.2794 33.9089 59.3729 34.1717 59.3729C34.4274 59.3729 34.6203 59.2794 34.7505 59.0923C34.8807 58.9029 34.9458 58.6745 34.9458 58.407V58.0767C34.9458 57.8092 34.8819 57.5819 34.7541 57.3949C34.6262 57.2055 34.4321 57.1108 34.1717 57.1108C33.9136 57.1108 33.7172 57.2055 33.5822 57.3949C33.4496 57.5819 33.3833 57.8092 33.3833 58.0767ZM33.1525 64L38.149 56.7273H38.7775L33.7811 64H33.1525Z" fill="white" fill-opacity="0.6"/>
<path d="M48 60H608" stroke="white" stroke-opacity="0.1"/>
<path d="M30.6028 80.7273V88H29.9387V81.4233H29.8961L28.1916 82.5561V81.8672L29.9103 80.7273H30.6028ZM36.4906 86.6506V86.3203C36.4906 86.0481 36.545 85.803 36.6539 85.5852C36.7628 85.3651 36.9179 85.1911 37.1191 85.0632C37.3204 84.9354 37.5595 84.8714 37.8365 84.8714C38.1158 84.8714 38.3549 84.9354 38.5538 85.0632C38.7527 85.1911 38.9054 85.3651 39.0119 85.5852C39.1184 85.803 39.1717 86.0481 39.1717 86.3203V86.6506C39.1717 86.9228 39.1172 87.1679 39.0083 87.3857C38.9018 87.6035 38.7491 87.7775 38.5502 87.9077C38.3514 88.0355 38.1135 88.0994 37.8365 88.0994C37.5547 88.0994 37.3133 88.0355 37.112 87.9077C36.9132 87.7775 36.7593 87.6035 36.6504 87.3857C36.5439 87.1679 36.4906 86.9228 36.4906 86.6506ZM37.0481 86.3203V86.6506C37.0481 86.9181 37.1132 87.1465 37.2434 87.3359C37.376 87.523 37.5737 87.6165 37.8365 87.6165C38.0922 87.6165 38.2851 87.523 38.4153 87.3359C38.5455 87.1465 38.6106 86.9181 38.6106 86.6506V86.3203C38.6106 86.0528 38.5467 85.8255 38.4189 85.6385C38.291 85.4491 38.0969 85.3544 37.8365 85.3544C37.5784 85.3544 37.3819 85.4491 37.247 85.6385C37.1144 85.8255 37.0481 86.0528 37.0481 86.3203ZM32.8258 82.407V82.0767C32.8258 81.8045 32.8803 81.5594 32.9892 81.3416C33.0981 81.1238 33.2531 80.951 33.4544 80.8232C33.6556 80.6929 33.8947 80.6278 34.1717 80.6278C34.4511 80.6278 34.6902 80.6929 34.889 80.8232C35.0879 80.951 35.2406 81.1238 35.3471 81.3416C35.4537 81.5594 35.5069 81.8045 35.5069 82.0767V82.407C35.5069 82.6792 35.4525 82.9254 35.3436 83.1456C35.237 83.3634 35.0843 83.5362 34.8855 83.6641C34.6866 83.7919 34.4487 83.8558 34.1717 83.8558C33.89 83.8558 33.6485 83.7919 33.4473 83.6641C33.2484 83.5362 33.0945 83.3634 32.9856 83.1456C32.8791 82.9254 32.8258 82.6792 32.8258 82.407ZM33.3833 82.0767V82.407C33.3833 82.6745 33.4484 82.9029 33.5787 83.0923C33.7112 83.2794 33.9089 83.3729 34.1717 83.3729C34.4274 83.3729 34.6203 83.2794 34.7505 83.0923C34.8807 82.9029 34.9458 82.6745 34.9458 82.407V82.0767C34.9458 81.8092 34.8819 81.5819 34.7541 81.3949C34.6262 81.2055 34.4321 81.1108 34.1717 81.1108C33.9136 81.1108 33.7172 81.2055 33.5822 81.3949C33.4496 81.5819 33.3833 81.8092 33.3833 82.0767ZM33.1525 88L38.149 80.7273H38.7775L33.7811 88H33.1525Z" fill="white" fill-opacity="0.6"/>
<path d="M48 84H608" stroke="white" stroke-opacity="0.1"/>
<path d="M28.9373 112.099C28.426 112.099 27.9892 111.953 27.627 111.659C27.2671 111.363 26.9901 110.936 26.796 110.377C26.6042 109.818 26.5083 109.147 26.5083 108.364C26.5083 107.582 26.6042 106.914 26.796 106.357C26.9901 105.799 27.2683 105.371 27.6305 105.075C27.9951 104.777 28.4307 104.628 28.9373 104.628C29.444 104.628 29.8784 104.777 30.2406 105.075C30.6052 105.371 30.8833 105.799 31.0751 106.357C31.2692 106.914 31.3663 107.582 31.3663 108.364C31.3663 109.147 31.2692 109.818 31.0751 110.377C30.8833 110.936 30.6064 111.363 30.2441 111.659C29.8843 111.953 29.4487 112.099 28.9373 112.099ZM28.9373 111.503C29.4984 111.503 29.9364 111.229 30.2512 110.683C30.5661 110.133 30.7235 109.36 30.7235 108.364C30.7235 107.701 30.6513 107.135 30.5069 106.666C30.3649 106.195 30.1601 105.835 29.8926 105.587C29.6274 105.338 29.309 105.214 28.9373 105.214C28.381 105.214 27.9442 105.491 27.627 106.045C27.3097 106.596 27.1511 107.369 27.1511 108.364C27.1511 109.027 27.2221 109.592 27.3642 110.061C27.5086 110.53 27.7134 110.887 27.9785 111.134C28.246 111.38 28.5656 111.503 28.9373 111.503ZM36.4906 110.651V110.32C36.4906 110.048 36.545 109.803 36.6539 109.585C36.7628 109.365 36.9179 109.191 37.1191 109.063C37.3204 108.935 37.5595 108.871 37.8365 108.871C38.1158 108.871 38.3549 108.935 38.5538 109.063C38.7527 109.191 38.9054 109.365 39.0119 109.585C39.1184 109.803 39.1717 110.048 39.1717 110.32V110.651C39.1717 110.923 39.1172 111.168 39.0083 111.386C38.9018 111.603 38.7491 111.777 38.5502 111.908C38.3514 112.036 38.1135 112.099 37.8365 112.099C37.5547 112.099 37.3133 112.036 37.112 111.908C36.9132 111.777 36.7593 111.603 36.6504 111.386C36.5439 111.168 36.4906 110.923 36.4906 110.651ZM37.0481 110.32V110.651C37.0481 110.918 37.1132 111.147 37.2434 111.336C37.376 111.523 37.5737 111.616 37.8365 111.616C38.0922 111.616 38.2851 111.523 38.4153 111.336C38.5455 111.147 38.6106 110.918 38.6106 110.651V110.32C38.6106 110.053 38.5467 109.826 38.4189 109.638C38.291 109.449 38.0969 109.354 37.8365 109.354C37.5784 109.354 37.3819 109.449 37.247 109.638C37.1144 109.826 37.0481 110.053 37.0481 110.32ZM32.8258 106.407V106.077C32.8258 105.804 32.8803 105.559 32.9892 105.342C33.0981 105.124 33.2531 104.951 33.4544 104.823C33.6556 104.693 33.8947 104.628 34.1717 104.628C34.4511 104.628 34.6902 104.693 34.889 104.823C35.0879 104.951 35.2406 105.124 35.3471 105.342C35.4537 105.559 35.5069 105.804 35.5069 106.077V106.407C35.5069 106.679 35.4525 106.925 35.3436 107.146C35.237 107.363 35.0843 107.536 34.8855 107.664C34.6866 107.792 34.4487 107.856 34.1717 107.856C33.89 107.856 33.6485 107.792 33.4473 107.664C33.2484 107.536 33.0945 107.363 32.9856 107.146C32.8791 106.925 32.8258 106.679 32.8258 106.407ZM33.3833 106.077V106.407C33.3833 106.674 33.4484 106.903 33.5787 107.092C33.7112 107.279 33.9089 107.373 34.1717 107.373C34.4274 107.373 34.6203 107.279 34.7505 107.092C34.8807 106.903 34.9458 106.674 34.9458 106.407V106.077C34.9458 105.809 34.8819 105.582 34.7541 105.395C34.6262 105.205 34.4321 105.111 34.1717 105.111C33.9136 105.111 33.7172 105.205 33.5822 105.395C33.4496 105.582 33.3833 105.809 33.3833 106.077ZM33.1525 112L38.149 104.727H38.7775L33.7811 112H33.1525Z" fill="white" fill-opacity="0.6"/>
<path d="M48 108H608" stroke="white" stroke-opacity="0.2"/>
<path d="M26.796 132.065V132.662H23.7704V132.065H26.796ZM30.6028 128.727V136H29.9387V129.423H29.8961L28.1916 130.556V129.867L29.9103 128.727H30.6028ZM36.4906 134.651V134.32C36.4906 134.048 36.545 133.803 36.6539 133.585C36.7628 133.365 36.9179 133.191 37.1191 133.063C37.3204 132.935 37.5595 132.871 37.8365 132.871C38.1158 132.871 38.3549 132.935 38.5538 133.063C38.7527 133.191 38.9054 133.365 39.0119 133.585C39.1184 133.803 39.1717 134.048 39.1717 134.32V134.651C39.1717 134.923 39.1172 135.168 39.0083 135.386C38.9018 135.603 38.7491 135.777 38.5502 135.908C38.3514 136.036 38.1135 136.099 37.8365 136.099C37.5547 136.099 37.3133 136.036 37.112 135.908C36.9132 135.777 36.7593 135.603 36.6504 135.386C36.5439 135.168 36.4906 134.923 36.4906 134.651ZM37.0481 134.32V134.651C37.0481 134.918 37.1132 135.147 37.2434 135.336C37.376 135.523 37.5737 135.616 37.8365 135.616C38.0922 135.616 38.2851 135.523 38.4153 135.336C38.5455 135.147 38.6106 134.918 38.6106 134.651V134.32C38.6106 134.053 38.5467 133.826 38.4189 133.638C38.291 133.449 38.0969 133.354 37.8365 133.354C37.5784 133.354 37.3819 133.449 37.247 133.638C37.1144 133.826 37.0481 134.053 37.0481 134.32ZM32.8258 130.407V130.077C32.8258 129.804 32.8803 129.559 32.9892 129.342C33.0981 129.124 33.2531 128.951 33.4544 128.823C33.6556 128.693 33.8947 128.628 34.1717 128.628C34.4511 128.628 34.6902 128.693 34.889 128.823C35.0879 128.951 35.2406 129.124 35.3471 129.342C35.4537 129.559 35.5069 129.804 35.5069 130.077V130.407C35.5069 130.679 35.4525 130.925 35.3436 131.146C35.237 131.363 35.0843 131.536 34.8855 131.664C34.6866 131.792 34.4487 131.856 34.1717 131.856C33.89 131.856 33.6485 131.792 33.4473 131.664C33.2484 131.536 33.0945 131.363 32.9856 131.146C32.8791 130.925 32.8258 130.679 32.8258 130.407ZM33.3833 130.077V130.407C33.3833 130.674 33.4484 130.903 33.5787 131.092C33.7112 131.279 33.9089 131.373 34.1717 131.373C34.4274 131.373 34.6203 131.279 34.7505 131.092C34.8807 130.903 34.9458 130.674 34.9458 130.407V130.077C34.9458 129.809 34.8819 129.582 34.7541 129.395C34.6262 129.205 34.4321 129.111 34.1717 129.111C33.9136 129.111 33.7172 129.205 33.5822 129.395C33.4496 129.582 33.3833 129.809 33.3833 130.077ZM33.1525 136L38.149 128.727H38.7775L33.7811 136H33.1525Z" fill="white" fill-opacity="0.6"/>
<path d="M48 132H608" stroke="white" stroke-opacity="0.1"/>
<path d="M25.4874 156.065V156.662H22.4618V156.065H25.4874ZM26.7081 160V159.513L29.0838 156.843C29.3939 156.493 29.6437 156.193 29.8331 155.945C30.0225 155.696 30.1598 155.466 30.245 155.256C30.3326 155.045 30.3764 154.826 30.3764 154.599C30.3764 154.322 30.3113 154.08 30.1811 153.874C30.0533 153.666 29.8769 153.504 29.652 153.388C29.4271 153.272 29.1738 153.214 28.892 153.214C28.5938 153.214 28.3321 153.278 28.1072 153.406C27.8847 153.533 27.7119 153.709 27.5888 153.931C27.4657 154.154 27.4041 154.409 27.4041 154.698H26.7685C26.7685 154.296 26.8608 153.939 27.0455 153.629C27.2325 153.317 27.487 153.072 27.8089 152.894C28.1333 152.717 28.5002 152.628 28.9098 152.628C29.3146 152.628 29.6745 152.715 29.9893 152.891C30.3042 153.063 30.5516 153.299 30.7315 153.597C30.9115 153.896 31.0014 154.229 31.0014 154.599C31.0014 154.866 30.9541 155.125 30.8594 155.376C30.767 155.627 30.6072 155.907 30.38 156.214C30.1527 156.522 29.8378 156.899 29.4354 157.344L27.6314 159.357V159.403H31.2287V160H26.7081ZM36.4906 158.651V158.32C36.4906 158.048 36.545 157.803 36.6539 157.585C36.7628 157.365 36.9179 157.191 37.1191 157.063C37.3204 156.935 37.5595 156.871 37.8365 156.871C38.1158 156.871 38.3549 156.935 38.5538 157.063C38.7527 157.191 38.9054 157.365 39.0119 157.585C39.1184 157.803 39.1717 158.048 39.1717 158.32V158.651C39.1717 158.923 39.1172 159.168 39.0083 159.386C38.9018 159.603 38.7491 159.777 38.5502 159.908C38.3514 160.036 38.1135 160.099 37.8365 160.099C37.5547 160.099 37.3133 160.036 37.112 159.908C36.9132 159.777 36.7593 159.603 36.6504 159.386C36.5439 159.168 36.4906 158.923 36.4906 158.651ZM37.0481 158.32V158.651C37.0481 158.918 37.1132 159.147 37.2434 159.336C37.376 159.523 37.5737 159.616 37.8365 159.616C38.0922 159.616 38.2851 159.523 38.4153 159.336C38.5455 159.147 38.6106 158.918 38.6106 158.651V158.32C38.6106 158.053 38.5467 157.826 38.4189 157.638C38.291 157.449 38.0969 157.354 37.8365 157.354C37.5784 157.354 37.3819 157.449 37.247 157.638C37.1144 157.826 37.0481 158.053 37.0481 158.32ZM32.8258 154.407V154.077C32.8258 153.804 32.8803 153.559 32.9892 153.342C33.0981 153.124 33.2531 152.951 33.4544 152.823C33.6556 152.693 33.8947 152.628 34.1717 152.628C34.4511 152.628 34.6902 152.693 34.889 152.823C35.0879 152.951 35.2406 153.124 35.3471 153.342C35.4537 153.559 35.5069 153.804 35.5069 154.077V154.407C35.5069 154.679 35.4525 154.925 35.3436 155.146C35.237 155.363 35.0843 155.536 34.8855 155.664C34.6866 155.792 34.4487 155.856 34.1717 155.856C33.89 155.856 33.6485 155.792 33.4473 155.664C33.2484 155.536 33.0945 155.363 32.9856 155.146C32.8791 154.925 32.8258 154.679 32.8258 154.407ZM33.3833 154.077V154.407C33.3833 154.674 33.4484 154.903 33.5787 155.092C33.7112 155.279 33.9089 155.373 34.1717 155.373C34.4274 155.373 34.6203 155.279 34.7505 155.092C34.8807 154.903 34.9458 154.674 34.9458 154.407V154.077C34.9458 153.809 34.8819 153.582 34.7541 153.395C34.6262 153.205 34.4321 153.111 34.1717 153.111C33.9136 153.111 33.7172 153.205 33.5822 153.395C33.4496 153.582 33.3833 153.809 33.3833 154.077ZM33.1525 160L38.149 152.727H38.7775L33.7811 160H33.1525Z" fill="white" fill-opacity="0.6"/>
<path d="M48 156H608" stroke="white" stroke-opacity="0.1"/>
<path d="M25.0772 180.065V180.662H22.0517V180.065H25.0772ZM28.8841 184.099C28.4366 184.099 28.0365 184.019 27.6838 183.858C27.331 183.695 27.0517 183.469 26.8457 183.18C26.6397 182.891 26.5308 182.558 26.519 182.182H27.1902C27.202 182.447 27.2837 182.679 27.4352 182.878C27.5867 183.074 27.7879 183.228 28.0389 183.339C28.2898 183.448 28.5692 183.503 28.877 183.503C29.2131 183.503 29.5091 183.44 29.7647 183.315C30.0228 183.189 30.224 183.018 30.3684 182.8C30.5152 182.58 30.5886 182.331 30.5886 182.054C30.5886 181.76 30.514 181.501 30.3649 181.276C30.2157 181.051 30.0015 180.876 29.7221 180.751C29.4451 180.625 29.1137 180.562 28.7278 180.562H28.3017V179.966H28.7278C29.0427 179.966 29.3208 179.909 29.5623 179.795C29.8062 179.679 29.9979 179.517 30.1376 179.309C30.2773 179.101 30.3471 178.856 30.3471 178.574C30.3471 178.306 30.2868 178.071 30.166 177.867C30.0453 177.664 29.8748 177.504 29.6547 177.388C29.4368 177.272 29.1824 177.214 28.8912 177.214C28.6094 177.214 28.3514 177.268 28.117 177.377C27.8826 177.486 27.6932 177.64 27.5488 177.839C27.4068 178.038 27.331 178.273 27.3216 178.545H26.6788C26.6883 178.167 26.7924 177.834 26.9913 177.548C27.1925 177.259 27.4589 177.034 27.7903 176.873C28.1241 176.71 28.4934 176.628 28.8983 176.628C29.3268 176.628 29.6973 176.715 30.0098 176.891C30.3223 177.066 30.5637 177.299 30.7342 177.59C30.907 177.879 30.9934 178.197 30.9934 178.545C30.9934 178.96 30.881 179.315 30.6561 179.611C30.4312 179.904 30.1281 180.108 29.747 180.222V180.268C30.211 180.36 30.5756 180.566 30.8407 180.886C31.1083 181.203 31.242 181.592 31.242 182.054C31.242 182.442 31.1402 182.791 30.9366 183.102C30.733 183.409 30.4537 183.653 30.0985 183.833C29.7458 184.011 29.341 184.099 28.8841 184.099ZM36.4906 182.651V182.32C36.4906 182.048 36.545 181.803 36.6539 181.585C36.7628 181.365 36.9179 181.191 37.1191 181.063C37.3204 180.935 37.5595 180.871 37.8365 180.871C38.1158 180.871 38.3549 180.935 38.5538 181.063C38.7527 181.191 38.9054 181.365 39.0119 181.585C39.1184 181.803 39.1717 182.048 39.1717 182.32V182.651C39.1717 182.923 39.1172 183.168 39.0083 183.386C38.9018 183.603 38.7491 183.777 38.5502 183.908C38.3514 184.036 38.1135 184.099 37.8365 184.099C37.5547 184.099 37.3133 184.036 37.112 183.908C36.9132 183.777 36.7593 183.603 36.6504 183.386C36.5439 183.168 36.4906 182.923 36.4906 182.651ZM37.0481 182.32V182.651C37.0481 182.918 37.1132 183.147 37.2434 183.336C37.376 183.523 37.5737 183.616 37.8365 183.616C38.0922 183.616 38.2851 183.523 38.4153 183.336C38.5455 183.147 38.6106 182.918 38.6106 182.651V182.32C38.6106 182.053 38.5467 181.826 38.4189 181.638C38.291 181.449 38.0969 181.354 37.8365 181.354C37.5784 181.354 37.3819 181.449 37.247 181.638C37.1144 181.826 37.0481 182.053 37.0481 182.32ZM32.8258 178.407V178.077C32.8258 177.804 32.8803 177.559 32.9892 177.342C33.0981 177.124 33.2531 176.951 33.4544 176.823C33.6556 176.693 33.8947 176.628 34.1717 176.628C34.4511 176.628 34.6902 176.693 34.889 176.823C35.0879 176.951 35.2406 177.124 35.3471 177.342C35.4537 177.559 35.5069 177.804 35.5069 178.077V178.407C35.5069 178.679 35.4525 178.925 35.3436 179.146C35.237 179.363 35.0843 179.536 34.8855 179.664C34.6866 179.792 34.4487 179.856 34.1717 179.856C33.89 179.856 33.6485 179.792 33.4473 179.664C33.2484 179.536 33.0945 179.363 32.9856 179.146C32.8791 178.925 32.8258 178.679 32.8258 178.407ZM33.3833 178.077V178.407C33.3833 178.674 33.4484 178.903 33.5787 179.092C33.7112 179.279 33.9089 179.373 34.1717 179.373C34.4274 179.373 34.6203 179.279 34.7505 179.092C34.8807 178.903 34.9458 178.674 34.9458 178.407V178.077C34.9458 177.809 34.8819 177.582 34.7541 177.395C34.6262 177.205 34.4321 177.111 34.1717 177.111C33.9136 177.111 33.7172 177.205 33.5822 177.395C33.4496 177.582 33.3833 177.809 33.3833 178.077ZM33.1525 184L38.149 176.727H38.7775L33.7811 184H33.1525Z" fill="white" fill-opacity="0.6"/>
<path d="M48 180H608" stroke="white" stroke-opacity="0.1"/>
<path d="M48 204H608" stroke="white" stroke-opacity="0.1"/>
<rect x="75" y="59" width="16" height="49" fill="#01593D"/>
<rect x="91" y="108" width="16" height="24" fill="#304986"/>
<rect x="152" y="35" width="16" height="73" fill="#01593D"/>
<rect x="168" y="108" width="16" height="48" fill="#304986"/>
<rect width="16" height="24" transform="matrix(1 0 0 -1 229 132)" fill="#01593D"/>
<rect width="16" height="49" transform="matrix(1 0 0 -1 245 108)" fill="#304986"/>
<rect width="16" height="15" transform="matrix(1 0 0 -1 306 123)" fill="#01593D"/>
<rect width="16" height="37" transform="matrix(1 0 0 -1 322 108)" fill="#304986"/>
<rect x="383" y="73" width="16" height="35" fill="#01593D"/>
<rect x="399" y="108" width="16" height="24" fill="#304986"/>
<rect x="460" y="59" width="16" height="49" fill="#01593D"/>
<rect x="476" y="108" width="16" height="35" fill="#304986"/>
<rect x="504" y="10" width="8" height="8" rx="2" fill="#01593D"/>
<path d="M516.632 18V10.7273H518.17V16.7322H521.288V18H516.632ZM528.706 14.3636C528.706 15.1567 528.556 15.8314 528.255 16.3878C527.957 16.9441 527.549 17.3691 527.033 17.6626C526.52 17.9538 525.942 18.0994 525.3 18.0994C524.654 18.0994 524.074 17.9527 523.56 17.6591C523.047 17.3655 522.641 16.9406 522.342 16.3842C522.044 15.8279 521.895 15.1544 521.895 14.3636C521.895 13.5705 522.044 12.8958 522.342 12.3395C522.641 11.7831 523.047 11.3594 523.56 11.0682C524.074 10.7746 524.654 10.6278 525.3 10.6278C525.942 10.6278 526.52 10.7746 527.033 11.0682C527.549 11.3594 527.957 11.7831 528.255 12.3395C528.556 12.8958 528.706 13.5705 528.706 14.3636ZM527.147 14.3636C527.147 13.8499 527.07 13.4167 526.916 13.0639C526.765 12.7112 526.55 12.4437 526.273 12.2614C525.996 12.0791 525.672 11.9879 525.3 11.9879C524.929 11.9879 524.604 12.0791 524.327 12.2614C524.05 12.4437 523.835 12.7112 523.681 13.0639C523.53 13.4167 523.454 13.8499 523.454 14.3636C523.454 14.8774 523.53 15.3106 523.681 15.6634C523.835 16.0161 524.05 16.2836 524.327 16.4659C524.604 16.6482 524.929 16.7393 525.3 16.7393C525.672 16.7393 525.996 16.6482 526.273 16.4659C526.55 16.2836 526.765 16.0161 526.916 15.6634C527.07 15.3106 527.147 14.8774 527.147 14.3636ZM535.928 10.7273V18H534.6L531.436 13.4226H531.383V18H529.845V10.7273H531.194L534.334 15.3011H534.398V10.7273H535.928ZM542.021 13.0781C541.971 12.9053 541.901 12.7526 541.811 12.62C541.721 12.4851 541.611 12.3714 541.481 12.2791C541.353 12.1844 541.207 12.1122 541.041 12.0625C540.877 12.0128 540.696 11.9879 540.498 11.9879C540.126 11.9879 539.799 12.0803 539.517 12.2649C539.238 12.4496 539.02 12.7183 538.864 13.071C538.708 13.4214 538.63 13.8499 538.63 14.3565C538.63 14.8632 538.707 15.294 538.86 15.6491C539.014 16.0043 539.232 16.2753 539.514 16.4624C539.796 16.647 540.128 16.7393 540.512 16.7393C540.86 16.7393 541.157 16.6778 541.403 16.5547C541.652 16.4292 541.841 16.2528 541.971 16.0256C542.104 15.7983 542.17 15.5296 542.17 15.2195L542.483 15.2656H540.608V14.108H543.651V15.0241C543.651 15.6634 543.516 16.2126 543.246 16.6719C542.976 17.1288 542.605 17.4815 542.131 17.7301C541.658 17.9763 541.115 18.0994 540.505 18.0994C539.823 18.0994 539.224 17.9491 538.708 17.6484C538.192 17.3454 537.789 16.9157 537.5 16.3594C537.214 15.8007 537.071 15.1378 537.071 14.3707C537.071 13.7812 537.156 13.2557 537.326 12.794C537.499 12.33 537.741 11.937 538.051 11.6151C538.361 11.2931 538.722 11.0481 539.134 10.88C539.546 10.7119 539.992 10.6278 540.473 10.6278C540.885 10.6278 541.268 10.6882 541.623 10.8089C541.978 10.9273 542.293 11.0954 542.568 11.3132C542.845 11.531 543.071 11.7902 543.246 12.0909C543.421 12.3892 543.534 12.7183 543.583 13.0781H542.021Z" fill="white" fill-opacity="0.8"/>
<rect x="504" y="26" width="8" height="8" rx="2" fill="#304986"/>
<path d="M520.577 28.8189C520.549 28.5324 520.427 28.3099 520.212 28.1513C519.996 27.9927 519.704 27.9134 519.335 27.9134C519.084 27.9134 518.872 27.9489 518.699 28.0199C518.526 28.0885 518.393 28.1844 518.301 28.3075C518.211 28.4306 518.166 28.5703 518.166 28.7266C518.161 28.8568 518.189 28.9704 518.248 29.0675C518.309 29.1645 518.393 29.2486 518.5 29.3196C518.607 29.3883 518.73 29.4486 518.869 29.5007C519.009 29.5504 519.158 29.593 519.317 29.6286L519.97 29.7848C520.287 29.8558 520.579 29.9505 520.844 30.0689C521.109 30.1873 521.339 30.3329 521.533 30.5057C521.727 30.6785 521.877 30.8821 521.984 31.1165C522.093 31.3509 522.148 31.6196 522.151 31.9226C522.148 32.3677 522.035 32.7536 521.81 33.0803C521.587 33.4046 521.265 33.6567 520.844 33.8366C520.425 34.0142 519.919 34.103 519.327 34.103C518.74 34.103 518.229 34.013 517.793 33.8331C517.36 33.6532 517.022 33.3868 516.778 33.0341C516.536 32.679 516.41 32.2398 516.398 31.7166H517.886C517.902 31.9605 517.972 32.1641 518.095 32.3274C518.221 32.4884 518.388 32.6103 518.596 32.6932C518.807 32.7737 519.045 32.8139 519.31 32.8139C519.57 32.8139 519.796 32.776 519.988 32.7003C520.182 32.6245 520.332 32.5192 520.439 32.3842C520.545 32.2493 520.599 32.0942 520.599 31.919C520.599 31.7557 520.55 31.6184 520.453 31.5071C520.358 31.3958 520.219 31.3011 520.034 31.223C519.852 31.1449 519.628 31.0739 519.363 31.0099L518.571 30.8111C517.958 30.6619 517.474 30.4287 517.119 30.1115C516.763 29.7943 516.587 29.367 516.589 28.8295C516.587 28.3892 516.704 28.0045 516.941 27.6754C517.18 27.3464 517.508 27.0895 517.925 26.9048C518.341 26.7202 518.815 26.6278 519.345 26.6278C519.885 26.6278 520.356 26.7202 520.759 26.9048C521.163 27.0895 521.478 27.3464 521.703 27.6754C521.928 28.0045 522.044 28.3857 522.051 28.8189H520.577ZM523.185 34V26.7273H524.722V29.728H527.844V26.7273H529.378V34H527.844V30.9957H524.722V34H523.185ZM537.329 30.3636C537.329 31.1567 537.179 31.8314 536.878 32.3878C536.58 32.9441 536.173 33.3691 535.656 33.6626C535.143 33.9538 534.565 34.0994 533.923 34.0994C533.277 34.0994 532.697 33.9527 532.183 33.6591C531.67 33.3655 531.264 32.9406 530.965 32.3842C530.667 31.8279 530.518 31.1544 530.518 30.3636C530.518 29.5705 530.667 28.8958 530.965 28.3395C531.264 27.7831 531.67 27.3594 532.183 27.0682C532.697 26.7746 533.277 26.6278 533.923 26.6278C534.565 26.6278 535.143 26.7746 535.656 27.0682C536.173 27.3594 536.58 27.7831 536.878 28.3395C537.179 28.8958 537.329 29.5705 537.329 30.3636ZM535.77 30.3636C535.77 29.8499 535.693 29.4167 535.539 29.0639C535.388 28.7112 535.173 28.4437 534.896 28.2614C534.619 28.0791 534.295 27.9879 533.923 27.9879C533.552 27.9879 533.227 28.0791 532.95 28.2614C532.673 28.4437 532.458 28.7112 532.304 29.0639C532.153 29.4167 532.077 29.8499 532.077 30.3636C532.077 30.8774 532.153 31.3106 532.304 31.6634C532.458 32.0161 532.673 32.2836 532.95 32.4659C533.227 32.6482 533.552 32.7393 533.923 32.7393C534.295 32.7393 534.619 32.6482 534.896 32.4659C535.173 32.2836 535.388 32.0161 535.539 31.6634C535.693 31.3106 535.77 30.8774 535.77 30.3636ZM538.468 34V26.7273H541.337C541.887 26.7273 542.355 26.8255 542.744 27.022C543.134 27.2161 543.431 27.492 543.635 27.8494C543.841 28.2045 543.944 28.6224 543.944 29.103C543.944 29.5859 543.84 30.0014 543.631 30.3494C543.423 30.6951 543.121 30.9602 542.726 31.1449C542.333 31.3295 541.857 31.4219 541.298 31.4219H539.377V30.1861H541.05C541.343 30.1861 541.587 30.1458 541.781 30.0653C541.975 29.9848 542.12 29.8641 542.214 29.7031C542.312 29.5421 542.36 29.3421 542.36 29.103C542.36 28.8615 542.312 28.6579 542.214 28.4922C542.12 28.3265 541.974 28.201 541.778 28.1158C541.584 28.0282 541.339 27.9844 541.043 27.9844H540.006V34H538.468ZM542.396 30.6903L544.203 34H542.506L540.737 30.6903H542.396ZM544.754 27.995V26.7273H550.727V27.995H548.5V34H546.98V27.995H544.754Z" fill="white" fill-opacity="0.8"/>
</svg>
