<svg width="150" height="32" viewBox="0 0 150 32" fill="none" xmlns="http://www.w3.org/2000/svg">
<path d="M16.1881 0.979866C16.1881 0.422193 15.7452 -0.0332032 15.2005 0.00190261C13.4781 0.11291 11.7831 0.513722 10.1845 1.19031C8.28115 1.99589 6.55171 3.17664 5.09494 4.66516C3.63816 6.15367 2.48259 7.92079 1.69418 9.86563C0.905784 11.8105 0.5 13.8949 0.5 16C0.5 18.1051 0.905785 20.1895 1.69419 22.1344C2.48259 24.0792 3.63816 25.8463 5.09494 27.3348C6.55171 28.8234 8.28116 30.0041 10.1845 30.8097C11.7831 31.4863 13.4781 31.8871 15.2005 31.9981C15.7452 32.0332 16.1881 31.5778 16.1881 31.0201L16.1881 0.979866Z" fill="url(#paint0_linear_322_4789)"/>
<path d="M24.5882 4.26159C24.5882 3.70392 24.1449 3.24751 23.601 3.29341C20.719 3.5366 18.0004 4.83869 15.9408 6.98569C13.6473 9.37644 12.3589 12.619 12.3589 16C12.3589 19.381 13.6473 22.6236 15.9408 25.0143C18.0004 27.1613 20.719 28.4634 23.601 28.7066C24.1449 28.7525 24.5882 28.2961 24.5882 27.7384V4.26159Z" fill="url(#paint1_linear_322_4789)"/>
<path d="M43.564 19.309L41.8075 21.0799V24.3584H38.1538V6.60156H41.8075V16.6526L47.1474 11.4835H51.5037L46.2574 16.9398L51.9721 24.3584H47.5456L43.564 19.309Z" fill="url(#paint2_linear_322_4789)"/>
<path d="M65.8541 11.4835V24.3584H62.3644V22.8747C61.4588 23.9915 60.1472 24.5499 58.4297 24.5499C57.243 24.5499 56.1657 24.2787 55.1976 23.7362C54.2451 23.1938 53.4957 22.42 52.9492 21.4149C52.4027 20.4098 52.1295 19.2452 52.1295 17.921C52.1295 16.5968 52.4027 15.4321 52.9492 14.427C53.4957 13.4219 54.2451 12.6482 55.1976 12.1057C56.1657 11.5633 57.243 11.2921 58.4297 11.2921C60.0379 11.2921 61.2948 11.8106 62.2004 12.8476V11.4835H65.8541ZM59.062 21.4867C59.9833 21.4867 60.7483 21.1676 61.3573 20.5295C61.9662 19.8754 62.2707 19.0059 62.2707 17.921C62.2707 16.8361 61.9662 15.9746 61.3573 15.3364C60.7483 14.6823 59.9833 14.3552 59.062 14.3552C58.1252 14.3552 57.3523 14.6823 56.7434 15.3364C56.1344 15.9746 55.83 16.8361 55.83 17.921C55.83 19.0059 56.1344 19.8754 56.7434 20.5295C57.3523 21.1676 58.1252 21.4867 59.062 21.4867Z" fill="url(#paint3_linear_322_4789)"/>
<path d="M76.8954 11.2921C78.4568 11.2921 79.7137 11.7707 80.6661 12.7279C81.6342 13.6852 82.1182 15.1051 82.1182 16.9877V24.3584H78.4646V17.562C78.4646 16.541 78.246 15.7831 77.8088 15.2886C77.3716 14.778 76.7392 14.5228 75.9117 14.5228C74.9905 14.5228 74.2566 14.8179 73.7101 15.4082C73.1636 15.9826 72.8904 16.8441 72.8904 17.9928V24.3584H69.2367V11.4835H72.7265V12.9912C73.2105 12.4487 73.8116 12.0339 74.5299 11.7468C75.2481 11.4436 76.0366 11.2921 76.8954 11.2921Z" fill="url(#paint4_linear_322_4789)"/>
<path d="M98.3551 11.4835V24.3584H94.8654V22.8747C93.9598 23.9915 92.6482 24.5499 90.9307 24.5499C89.744 24.5499 88.6667 24.2787 87.6986 23.7362C86.7461 23.1938 85.9967 22.42 85.4502 21.4149C84.9037 20.4098 84.6305 19.2452 84.6305 17.921C84.6305 16.5968 84.9037 15.4321 85.4502 14.427C85.9967 13.4219 86.7461 12.6482 87.6986 12.1057C88.6667 11.5633 89.744 11.2921 90.9307 11.2921C92.5389 11.2921 93.7958 11.8106 94.7014 12.8476V11.4835H98.3551ZM91.563 21.4867C92.4843 21.4867 93.2493 21.1676 93.8583 20.5295C94.4672 19.8754 94.7717 19.0059 94.7717 17.921C94.7717 16.8361 94.4672 15.9746 93.8583 15.3364C93.2493 14.6823 92.4843 14.3552 91.563 14.3552C90.6262 14.3552 89.8533 14.6823 89.2444 15.3364C88.6354 15.9746 88.331 16.8361 88.331 17.921C88.331 19.0059 88.6354 19.8754 89.2444 20.5295C89.8533 21.1676 90.6262 21.4867 91.563 21.4867Z" fill="url(#paint5_linear_322_4789)"/>
<path d="M105.836 24.4781C104.728 24.4781 103.869 24.159 103.26 23.5209C102.667 22.8827 102.37 21.9972 102.37 20.8645V6.60156H104.033V20.7209C104.033 21.4708 104.205 22.0451 104.548 22.444C104.892 22.8269 105.407 23.0183 106.094 23.0183C106.531 23.0183 106.906 22.9465 107.218 22.8029L107.335 24.2149C106.851 24.3904 106.352 24.4781 105.836 24.4781Z" fill="url(#paint6_linear_322_4789)"/>
<path d="M120.611 11.7707V24.3584H119.018V21.8696C118.519 22.7152 117.855 23.3613 117.028 23.808C116.216 24.2547 115.294 24.4781 114.264 24.4781C113.108 24.4781 112.062 24.2069 111.125 23.6644C110.189 23.122 109.455 22.3642 108.924 21.391C108.393 20.4178 108.128 19.309 108.128 18.0646C108.128 16.8201 108.393 15.7113 108.924 14.7381C109.455 13.7649 110.189 13.0151 111.125 12.4886C112.062 11.9462 113.108 11.675 114.264 11.675C115.263 11.675 116.161 11.8903 116.957 12.3211C117.769 12.7359 118.433 13.3501 118.948 14.1638V11.7707H120.611ZM114.404 22.9704C115.263 22.9704 116.036 22.771 116.723 22.3722C117.426 21.9574 117.972 21.375 118.363 20.6252C118.768 19.8754 118.971 19.0218 118.971 18.0646C118.971 17.1073 118.768 16.2538 118.363 15.5039C117.972 14.7541 117.426 14.1797 116.723 13.7809C116.036 13.3661 115.263 13.1587 114.404 13.1587C113.53 13.1587 112.742 13.3661 112.039 13.7809C111.352 14.1797 110.805 14.7541 110.399 15.5039C110.009 16.2538 109.814 17.1073 109.814 18.0646C109.814 19.0218 110.009 19.8754 110.399 20.6252C110.805 21.375 111.352 21.9574 112.039 22.3722C112.742 22.771 113.53 22.9704 114.404 22.9704Z" fill="url(#paint7_linear_322_4789)"/>
<path d="M131.589 11.675C132.745 11.675 133.791 11.9462 134.727 12.4886C135.664 13.0151 136.398 13.7649 136.929 14.7381C137.46 15.7113 137.725 16.8201 137.725 18.0646C137.725 19.309 137.46 20.4178 136.929 21.391C136.398 22.3642 135.664 23.122 134.727 23.6644C133.791 24.2069 132.745 24.4781 131.589 24.4781C130.559 24.4781 129.63 24.2547 128.802 23.808C127.99 23.3613 127.334 22.7152 126.835 21.8696V24.3584H125.242V6.60156H126.905V14.1638C127.42 13.3501 128.076 12.7359 128.872 12.3211C129.684 11.8903 130.59 11.675 131.589 11.675ZM131.472 22.9704C132.331 22.9704 133.111 22.771 133.814 22.3722C134.517 21.9574 135.063 21.375 135.454 20.6252C135.859 19.8754 136.062 19.0218 136.062 18.0646C136.062 17.1073 135.859 16.2538 135.454 15.5039C135.063 14.7541 134.517 14.1797 133.814 13.7809C133.111 13.3661 132.331 13.1587 131.472 13.1587C130.598 13.1587 129.809 13.3661 129.106 13.7809C128.419 14.1797 127.873 14.7541 127.467 15.5039C127.077 16.2538 126.881 17.1073 126.881 18.0646C126.881 19.0218 127.077 19.8754 127.467 20.6252C127.873 21.375 128.419 21.9574 129.106 22.3722C129.809 22.771 130.598 22.9704 131.472 22.9704Z" fill="url(#paint8_linear_322_4789)"/>
<path d="M144.417 24.4781C143.418 24.4781 142.458 24.3345 141.537 24.0473C140.631 23.7442 139.921 23.3693 139.405 22.9226L140.155 21.5824C140.67 21.9972 141.318 22.3403 142.099 22.6115C142.88 22.8667 143.691 22.9944 144.535 22.9944C145.659 22.9944 146.486 22.8189 147.017 22.4679C147.564 22.1009 147.837 21.5904 147.837 20.9363C147.837 20.4736 147.689 20.1147 147.392 19.8594C147.095 19.5882 146.721 19.3888 146.268 19.2611C145.815 19.1175 145.214 18.9819 144.464 18.8543C143.465 18.6628 142.661 18.4714 142.052 18.2799C141.443 18.0725 140.92 17.7295 140.483 17.2509C140.061 16.7723 139.85 16.1102 139.85 15.2646C139.85 14.2117 140.28 13.3501 141.139 12.6801C141.997 12.01 143.192 11.675 144.722 11.675C145.518 11.675 146.315 11.7866 147.111 12.01C147.907 12.2174 148.563 12.4966 149.078 12.8476L148.352 14.2117C147.337 13.4937 146.127 13.1348 144.722 13.1348C143.66 13.1348 142.856 13.3262 142.31 13.7091C141.779 14.092 141.513 14.5946 141.513 15.2168C141.513 15.6954 141.662 16.0783 141.958 16.3655C142.271 16.6526 142.653 16.868 143.106 17.0116C143.559 17.1392 144.183 17.2748 144.98 17.4184C145.963 17.6099 146.752 17.8013 147.345 17.9928C147.938 18.1842 148.446 18.5113 148.867 18.9739C149.289 19.4366 149.5 20.0748 149.5 20.8884C149.5 21.9893 149.047 22.8667 148.141 23.5209C147.251 24.159 146.01 24.4781 144.417 24.4781Z" fill="url(#paint9_linear_322_4789)"/>
<defs>
<linearGradient id="paint0_linear_322_4789" x1="0.30976" y1="35.3987" x2="25.6221" y2="-3.54155" gradientUnits="userSpaceOnUse">
<stop stop-color="#0194FF"/>
<stop offset="1" stop-color="#1FF8D1"/>
</linearGradient>
<linearGradient id="paint1_linear_322_4789" x1="12.2106" y1="31.4096" x2="32.4692" y2="0.825992" gradientUnits="userSpaceOnUse">
<stop stop-color="#0194FF"/>
<stop offset="1" stop-color="#1FF8D1"/>
</linearGradient>
<linearGradient id="paint2_linear_322_4789" x1="49.0144" y1="39.1017" x2="86.3768" y2="-7.55115" gradientUnits="userSpaceOnUse">
<stop stop-color="#1FF8EB"/>
<stop offset="1" stop-color="#01A4FF"/>
</linearGradient>
<linearGradient id="paint3_linear_322_4789" x1="49.0144" y1="39.1017" x2="86.3768" y2="-7.55115" gradientUnits="userSpaceOnUse">
<stop stop-color="#1FF8EB"/>
<stop offset="1" stop-color="#01A4FF"/>
</linearGradient>
<linearGradient id="paint4_linear_322_4789" x1="49.0144" y1="39.1017" x2="86.3768" y2="-7.55115" gradientUnits="userSpaceOnUse">
<stop stop-color="#1FF8EB"/>
<stop offset="1" stop-color="#01A4FF"/>
</linearGradient>
<linearGradient id="paint5_linear_322_4789" x1="49.0144" y1="39.1017" x2="86.3768" y2="-7.55115" gradientUnits="userSpaceOnUse">
<stop stop-color="#1FF8EB"/>
<stop offset="1" stop-color="#01A4FF"/>
</linearGradient>
<linearGradient id="paint6_linear_322_4789" x1="49.0144" y1="39.1017" x2="86.3768" y2="-7.55115" gradientUnits="userSpaceOnUse">
<stop stop-color="#1FF8EB"/>
<stop offset="1" stop-color="#01A4FF"/>
</linearGradient>
<linearGradient id="paint7_linear_322_4789" x1="49.0144" y1="39.1017" x2="86.3768" y2="-7.55115" gradientUnits="userSpaceOnUse">
<stop stop-color="#1FF8EB"/>
<stop offset="1" stop-color="#01A4FF"/>
</linearGradient>
<linearGradient id="paint8_linear_322_4789" x1="49.0144" y1="39.1017" x2="86.3768" y2="-7.55115" gradientUnits="userSpaceOnUse">
<stop stop-color="#1FF8EB"/>
<stop offset="1" stop-color="#01A4FF"/>
</linearGradient>
<linearGradient id="paint9_linear_322_4789" x1="49.0144" y1="39.1017" x2="86.3768" y2="-7.55115" gradientUnits="userSpaceOnUse">
<stop stop-color="#1FF8EB"/>
<stop offset="1" stop-color="#01A4FF"/>
</linearGradient>
</defs>
</svg>
