<svg width="24" height="24" viewBox="0 0 24 24" fill="none" xmlns="http://www.w3.org/2000/svg">
<path fill-rule="evenodd" clip-rule="evenodd" d="M13.2812 11.9994C13.2812 15.136 10.7558 17.6786 7.6407 17.6786C4.52561 17.6786 2 15.136 2 11.9994C2 8.86286 4.52542 6.32001 7.6407 6.32001C10.756 6.32001 13.2812 8.86286 13.2812 11.9994ZM19.469 11.9994C19.469 14.9518 18.2063 17.3461 16.6487 17.3461C15.091 17.3461 13.8283 14.9518 13.8283 11.9994C13.8283 9.04703 15.0908 6.65269 16.6485 6.65269C18.2061 6.65269 19.4688 9.04626 19.4688 11.9994H19.469ZM21.0081 16.7892C21.556 16.7892 22 14.644 22 11.9994C22 9.35403 21.5558 7.20959 21.0081 7.20959C20.4604 7.20959 20.0163 9.35422 20.0163 11.9994C20.0163 14.6446 20.4602 16.7892 21.0081 16.7892Z" fill="white"/>
</svg>
