<svg width="24" height="24" viewBox="0 0 24 24" fill="none" xmlns="http://www.w3.org/2000/svg">
<path fill-rule="evenodd" clip-rule="evenodd" d="M19.3008 9.55469C19.7461 9.55469 20.1055 9.17969 20.1055 8.73438C20.1055 8.28125 19.7539 7.91406 19.3008 7.91406H4.70703C4.25391 7.91406 3.90234 8.28906 3.90234 8.73438C3.90234 9.17188 4.26172 9.55469 4.70703 9.55469H19.3008ZM19.3008 13.1875C19.7461 13.1875 20.1055 12.8125 20.1055 12.3672C20.1055 11.9141 19.7539 11.5469 19.3008 11.5469H4.70703C4.25391 11.5469 3.90234 11.9219 3.90234 12.3672C3.90234 12.8047 4.26172 13.1875 4.70703 13.1875H19.3008ZM20.1055 16C20.1055 16.4453 19.7461 16.8281 19.3008 16.8281H4.70703C4.26172 16.8281 3.90234 16.4375 3.90234 16C3.90234 15.5547 4.25391 15.1797 4.70703 15.1797H19.3008C19.7539 15.1797 20.1055 15.5469 20.1055 16Z" fill="white"/>
</svg>
