<svg width="17" height="22" viewBox="0 0 17 22" fill="none" xmlns="http://www.w3.org/2000/svg">
<path d="M11.0554 0.673658C11.0554 0.290258 10.7433 -0.0228272 10.3594 0.00130804C9.14566 0.0776257 7.9512 0.353184 6.82466 0.81834C5.48336 1.37217 4.26463 2.18394 3.23804 3.2073C2.21146 4.23065 1.39712 5.44554 0.84154 6.78262C0.285955 8.11969 -1.26921e-07 9.55276 0 11C1.26922e-07 12.4472 0.285956 13.8803 0.84154 15.2174C1.39712 16.5545 2.21146 17.7694 3.23804 18.7927C4.26463 19.8161 5.48336 20.6278 6.82466 21.1817C7.9512 21.6468 9.14566 21.9224 10.3594 21.9987C10.7433 22.0228 11.0554 21.7097 11.0554 21.3263L11.0554 0.673658Z" fill="url(#paint0_linear_425_3185)"/>
<path d="M16.9744 2.92978C16.9744 2.54638 16.662 2.2326 16.2787 2.26415C14.2478 2.43135 12.332 3.32654 10.8806 4.8026C9.26441 6.44624 8.35645 8.67549 8.35645 10.9999C8.35645 13.3244 9.26441 15.5537 10.8806 17.1973C12.332 18.6734 14.2478 19.5685 16.2787 19.7357C16.662 19.7673 16.9744 19.4535 16.9744 19.0701V2.92978Z" fill="url(#paint1_linear_425_3185)"/>
<defs>
<linearGradient id="paint0_linear_425_3185" x1="-0.134062" y1="24.3366" x2="17.0901" y2="-2.82378" gradientUnits="userSpaceOnUse">
<stop stop-color="#0194FF"/>
<stop offset="1" stop-color="#1FF8D1"/>
</linearGradient>
<linearGradient id="paint1_linear_425_3185" x1="8.25194" y1="21.594" x2="22.0426" y2="0.254032" gradientUnits="userSpaceOnUse">
<stop stop-color="#0194FF"/>
<stop offset="1" stop-color="#1FF8D1"/>
</linearGradient>
</defs>
</svg>
