<svg width="20" height="18" viewBox="0 0 20 18" fill="none" xmlns="http://www.w3.org/2000/svg">
<path d="M6.28 17.126C13.824 17.126 17.952 10.87 17.952 5.454C17.952 5.278 17.952 5.102 17.944 4.926C18.744 4.35 19.44 3.62199 19.992 2.798C19.256 3.126 18.464 3.342 17.632 3.446C18.48 2.942 19.128 2.134 19.44 1.174C18.648 1.646 17.768 1.982 16.832 2.166C16.08 1.366 15.016 0.869995 13.84 0.869995C11.576 0.869995 9.736 2.71 9.736 4.974C9.736 5.294 9.776 5.606 9.84 5.91C6.432 5.74199 3.408 4.10199 1.384 1.622C1.032 2.23 0.832 2.934 0.832 3.686C0.832 5.10999 1.56 6.36599 2.656 7.10199C1.984 7.07799 1.352 6.89399 0.8 6.58999C0.8 6.60599 0.8 6.62199 0.8 6.646C0.8 8.63 2.216 10.294 4.088 10.67C3.744 10.766 3.384 10.814 3.008 10.814C2.744 10.814 2.488 10.79 2.24 10.742C2.76 12.374 4.28 13.558 6.072 13.59C4.664 14.694 2.896 15.35 0.976 15.35C0.648 15.35 0.32 15.334 0 15.294C1.808 16.446 3.968 17.126 6.28 17.126Z" fill="white"/>
</svg>
